<?xml version="1.0" encoding="utf-8"?>
<!-- Generator: Adobe Illustrator 21.0.0, SVG Export Plug-In . SVG Version: 6.00 Build 0)  -->
<!DOCTYPE svg PUBLIC "-//W3C//DTD SVG 1.1//EN" "http://www.w3.org/Graphics/SVG/1.1/DTD/svg11.dtd">
<svg version="1.1" id="Layer_1" xmlns="http://www.w3.org/2000/svg" xmlns:xlink="http://www.w3.org/1999/xlink" x="0px" y="0px"
	 viewBox="0 0 337 47" style="enable-background:new 0 0 337 47;" xml:space="preserve">
<style type="text/css">
	.st0{fill:#FFFF00;}
	.st1{fill:#FF0000;}
</style>
<g>
	<path class="st0" d="M9.4,45.3V9h15.9c11.7,0,19,5.4,19,17.4c0,13.7-7.6,18.9-19.3,18.9H9.4z M21.3,36.8h2.5c5.5,0,8.6-2.9,8.6-9.8
		c0-7.6-2.5-9.6-8.8-9.6h-2.3V36.8z"/>
	<path class="st0" d="M60.3,32.7v12.7H48.4V9h17.1c12.1,0,16.1,3.3,16.1,10.3c0,4.2-1.9,7.7-6.1,8.9c3.8,1.4,6.1,2.3,6.1,9.6
		c0,4.7-0.2,6.4,1.3,6.4v1.1h-12c-0.3-0.8-0.6-3.1-0.6-6.4c0-4.7-0.8-6.3-6.4-6.3H60.3z M60.3,24.7H65c3.7,0,5.6-0.9,5.6-3.4
		c0-2.6-2-3.8-4.8-3.8h-5.5V24.7z"/>
	<path class="st0" d="M124.6,27c0,12.3-8.3,19.3-19.1,19.3c-11.4,0-19-7.1-19-19.4c0-11.4,7.7-18.8,19-18.8
		C118.5,8.1,124.6,17.4,124.6,27z M98.4,27c0,4.6,1.4,10.4,7.1,10.4c5.1,0,7.2-4.4,7.2-10.4c0-4.9-2-10.2-7.3-10
		C100,16.9,98.4,22.4,98.4,27z"/>
	<path class="st0" d="M129.4,45.3V9h17.5c10.4,0,15.5,4.8,15.5,12.2c0,7.8-4.6,12.8-15.1,12.8h-6v11.3H129.4z M146.3,25.6
		c2.8,0,4.8-1.1,4.8-4.2c0-3.4-3.8-3.8-6.4-3.8h-3.4v8.1H146.3z"/>
	<path class="st0" d="M181.5,45.3v-8.6l17.4-19.2h-16.7V9h31.3v8.4l-17.6,19.4h18.3v8.5H181.5z"/>
	<path class="st0" d="M256.1,27c0,12.3-8.3,19.3-19.1,19.3c-11.4,0-19-7.1-19-19.4c0-11.4,7.7-18.8,19-18.8
		C250,8.1,256.1,17.4,256.1,27z M230,27c0,4.6,1.4,10.4,7.1,10.4c5.1,0,7.2-4.4,7.2-10.4c0-4.9-2-10.2-7.3-10
		C231.6,16.9,230,22.4,230,27z"/>
	<path class="st0" d="M285.7,28.8l-0.5-8.3V9h11.4v36.3h-11.1l-13-19.8l0.5,8.3v11.5h-11.4V9h11.1L285.7,28.8z"/>
	<path class="st0" d="M303.9,45.3V9h29.6v8.5h-17.7v5.2h15v8.5h-15v5.7h18.4v8.5H303.9z"/>
</g>
<g>
	<path class="st1" d="M2.7,39.6V3.3h15.9c11.7,0,19,5.4,19,17.4c0,13.7-7.6,18.9-19.3,18.9H2.7z M14.6,31.1h2.5
		c5.5,0,8.6-2.9,8.6-9.8c0-7.6-2.5-9.6-8.8-9.6h-2.3V31.1z"/>
	<path class="st1" d="M53.6,26.9v12.7H41.7V3.3h17.1c12.1,0,16.1,3.3,16.1,10.3c0,4.2-1.9,7.7-6.1,8.9c3.8,1.4,6.1,2.3,6.1,9.6
		c0,4.7-0.2,6.4,1.3,6.4v1.1h-12c-0.3-0.8-0.6-3.1-0.6-6.4c0-4.7-0.8-6.3-6.4-6.3H53.6z M53.6,18.9h4.7c3.7,0,5.6-0.9,5.6-3.4
		c0-2.6-2-3.8-4.8-3.8h-5.5V18.9z"/>
	<path class="st1" d="M117.8,21.2c0,12.3-8.3,19.3-19.1,19.3c-11.4,0-19-7.1-19-19.4c0-11.4,7.7-18.8,19-18.8
		C111.7,2.3,117.8,11.6,117.8,21.2z M91.7,21.2c0,4.6,1.4,10.4,7.1,10.4c5.1,0,7.2-4.4,7.2-10.4c0-4.9-2-10.2-7.3-10
		C93.3,11.2,91.7,16.6,91.7,21.2z"/>
	<path class="st1" d="M122.7,39.6V3.3h17.5c10.4,0,15.5,4.8,15.5,12.2c0,7.8-4.6,12.8-15.1,12.8h-6v11.3H122.7z M139.5,19.8
		c2.8,0,4.8-1.1,4.8-4.2c0-3.4-3.8-3.8-6.4-3.8h-3.4v8.1H139.5z"/>
	<path class="st1" d="M174.8,39.6v-8.6l17.4-19.2h-16.7V3.3h31.3v8.4l-17.6,19.4h18.3v8.5H174.8z"/>
	<path class="st1" d="M249.4,21.2c0,12.3-8.3,19.3-19.1,19.3c-11.4,0-19-7.1-19-19.4c0-11.4,7.7-18.8,19-18.8
		C243.3,2.3,249.4,11.6,249.4,21.2z M223.2,21.2c0,4.6,1.4,10.4,7.1,10.4c5.1,0,7.2-4.4,7.2-10.4c0-4.9-2-10.2-7.3-10
		C224.8,11.2,223.2,16.6,223.2,21.2z"/>
	<path class="st1" d="M278.9,23.1l-0.5-8.3V3.3h11.4v36.3h-11.1l-13-19.8l0.5,8.3v11.5h-11.4V3.3H266L278.9,23.1z"/>
	<path class="st1" d="M297.2,39.6V3.3h29.6v8.5h-17.7v5.2h15v8.5h-15v5.7h18.4v8.5H297.2z"/>
</g>
</svg>
