<?xml version="1.0" encoding="utf-8"?>
<!-- Generator: Adobe Illustrator 21.0.0, SVG Export Plug-In . SVG Version: 6.00 Build 0)  -->
<!DOCTYPE svg PUBLIC "-//W3C//DTD SVG 1.1//EN" "http://www.w3.org/Graphics/SVG/1.1/DTD/svg11.dtd">
<svg version="1.1" id="Layer_1" xmlns="http://www.w3.org/2000/svg" xmlns:xlink="http://www.w3.org/1999/xlink" x="0px" y="0px"
	 viewBox="0 0 411 274" style="enable-background:new 0 0 411 274;" xml:space="preserve">
<style type="text/css">
	.st0{clip-path:url(#SVGID_2_);fill:#FFFFFF;}
	.st1{clip-path:url(#SVGID_2_);fill:none;stroke:#231F20;stroke-width:7;}
</style>
<g>
	<defs>
		<rect id="SVGID_1_" y="0.4" width="410.8" height="273.6"/>
	</defs>
	<clipPath id="SVGID_2_">
		<use xlink:href="#SVGID_1_"  style="overflow:visible;"/>
	</clipPath>
	<path class="st0" d="M61.3,98.7c0-0.7-0.1-1.4-0.1-2.1c0-51.2,41.2-92.7,92.1-92.7c36.6,0,68.2,21.5,83.1,52.6
		C254.1,44.2,275.4,37,298.4,37c60.1,0,108.8,49,108.8,109.5c0,60.5-48.7,109.5-108.8,109.5c-23.2,0-44.7-7.3-62.4-19.8
		c-11.9,20.5-34,34.3-59.2,34.3c-30.3,0-56-19.8-65.1-47.2c-11.2,8-24.8,12.7-39.5,12.7c-37.9,0-68.7-30.9-68.7-69.1
		C3.5,132.4,28.6,103.9,61.3,98.7"/>
	<path class="st1" d="M61.3,98.7c0-0.7-0.1-1.4-0.1-2.1c0-51.2,41.2-92.7,92.1-92.7c36.6,0,68.2,21.5,83.1,52.6
		C254.1,44.2,275.4,37,298.4,37c60.1,0,108.8,49,108.8,109.5c0,60.5-48.7,109.5-108.8,109.5c-23.2,0-44.7-7.3-62.4-19.8
		c-11.9,20.5-34,34.3-59.2,34.3c-30.3,0-56-19.8-65.1-47.2c-11.2,8-24.8,12.7-39.5,12.7c-37.9,0-68.7-30.9-68.7-69.1
		C3.5,132.4,28.6,103.9,61.3,98.7z"/>
</g>
</svg>
