<?xml version="1.0" encoding="utf-8"?>
<!-- Generator: Adobe Illustrator 21.0.0, SVG Export Plug-In . SVG Version: 6.00 Build 0)  -->
<!DOCTYPE svg PUBLIC "-//W3C//DTD SVG 1.1//EN" "http://www.w3.org/Graphics/SVG/1.1/DTD/svg11.dtd">
<svg version="1.1" id="Layer_1" xmlns="http://www.w3.org/2000/svg" xmlns:xlink="http://www.w3.org/1999/xlink" x="0px" y="0px"
	 viewBox="0 0 118 235" style="enable-background:new 0 0 118 235;" xml:space="preserve">
<style type="text/css">
	.st0{clip-path:url(#SVGID_2_);fill:none;stroke:#231F20;stroke-width:1.413;}
	.st1{clip-path:url(#SVGID_2_);}
	.st2{clip-path:url(#SVGID_4_);fill:#0A5F58;}
	.st3{clip-path:url(#SVGID_6_);fill:none;stroke:#3BB27D;stroke-width:0.517;stroke-miterlimit:10;}
	.st4{clip-path:url(#SVGID_8_);fill:none;stroke:#231F20;stroke-width:1.413;}
	.st5{clip-path:url(#SVGID_10_);fill:none;stroke:#231F20;stroke-width:1.201;}
	.st6{clip-path:url(#SVGID_10_);fill:#0A5F58;}
	.st7{clip-path:url(#SVGID_12_);fill:none;stroke:#231F20;stroke-width:0.517;stroke-miterlimit:10;}
	.st8{clip-path:url(#SVGID_14_);fill:none;stroke:#231F20;stroke-width:1.413;}
	.st9{clip-path:url(#SVGID_16_);fill:none;stroke:#231F20;stroke-width:1.201;}
	.st10{clip-path:url(#SVGID_16_);fill:none;stroke:#231F20;stroke-width:1.413;}
	.st11{clip-path:url(#SVGID_18_);fill:none;stroke:#231F20;stroke-width:1.413;}
	.st12{clip-path:url(#SVGID_2_);fill:#C0A289;}
	.st13{clip-path:url(#SVGID_2_);fill:none;stroke:#7A5A42;stroke-width:3.914;}
	.st14{clip-path:url(#SVGID_2_);fill:#7A5A42;}
	.st15{clip-path:url(#SVGID_2_);fill:none;stroke:#231F20;stroke-width:1.565;}
	.st16{clip-path:url(#SVGID_20_);fill:none;stroke:#C0A289;stroke-width:0.517;stroke-miterlimit:10;}
	.st17{clip-path:url(#SVGID_22_);fill:none;stroke:#231F20;stroke-width:3.131;}
	.st18{clip-path:url(#SVGID_2_);fill:none;stroke:#231F20;stroke-width:2.348;}
	.st19{clip-path:url(#SVGID_2_);fill:none;stroke:#231F20;stroke-width:0.783;}
	.st20{clip-path:url(#SVGID_24_);fill:none;stroke:#231F20;stroke-width:0.517;stroke-miterlimit:10;}
	.st21{clip-path:url(#SVGID_26_);fill:none;stroke:#231F20;stroke-width:0.517;stroke-miterlimit:10;}
	.st22{clip-path:url(#SVGID_28_);fill:none;stroke:#231F20;stroke-width:0.517;stroke-miterlimit:10;}
	.st23{clip-path:url(#SVGID_30_);fill:none;stroke:#231F20;stroke-width:0.517;stroke-miterlimit:10;}
	.st24{clip-path:url(#SVGID_32_);fill:none;stroke:#C0A289;stroke-width:0.517;stroke-miterlimit:10;}
	.st25{clip-path:url(#SVGID_34_);fill:none;stroke:#C0A289;stroke-width:0.517;stroke-miterlimit:10;}
	.st26{clip-path:url(#SVGID_36_);fill:none;stroke:#C0A289;stroke-width:0.517;stroke-miterlimit:10;}
	.st27{clip-path:url(#SVGID_38_);}
	.st28{clip-path:url(#SVGID_40_);fill:none;stroke:#FF0000;stroke-width:18.081;}
</style>
<g>
	<defs>
		<rect id="SVGID_1_" y="-0.1" width="118.1" height="235.1"/>
	</defs>
	<clipPath id="SVGID_2_">
		<use xlink:href="#SVGID_1_"  style="overflow:visible;"/>
	</clipPath>
	<line class="st0" x1="45.8" y1="78.9" x2="55" y2="138.7"/>
	<g class="st1">
		<defs>
			<rect id="SVGID_3_" y="-0.1" width="118.1" height="235.1"/>
		</defs>
		<clipPath id="SVGID_4_">
			<use xlink:href="#SVGID_3_"  style="overflow:visible;"/>
		</clipPath>
		<path class="st2" d="M115.5,57c0-31.2-25.3-56.4-56.4-56.4C27.9,0.5,2.6,25.8,2.6,57S115.5,88.1,115.5,57"/>
	</g>
	<g class="st1">
		<defs>
			<path id="SVGID_5_" d="M3.8,45.6c1.9-0.7,3.5-2,3.1-3.2c-0.8-2.8,2.2-2.8,6.4-10.2c1.5-2.6,0.1-4.1-2.3-4.8
				C7.6,32.8,5.1,39,3.8,45.6 M82.6,12.6c-5.7,1.4-14.1,15.5-5.7,17c3.9,0.6,5.4-0.2,6.8-1c1.7-1,3.3-2,8.7-0.4
				c9.9,2.8,15.5,3.5,15.5,7.1c0,1.5,2.1,2.5,4.3,2.8c-3.2-8.9-8.5-16.8-15.4-23c-0.1,0.1-0.1,0.3-0.2,0.4c-1.6,4.2-2.8,2.8-2.8,2.8
				c-7.7,0-6.1-5.8-10-5.8C83.5,12.4,83.1,12.5,82.6,12.6 M21.5,14.8c-1.7,4.9-2.7,9.1-1.2,9.1c3.5,0,0,12.4,1.8,19.1
				c1.8,6.7,19.4-3.2,17.6-16.2c-1-7.1,2.8-6.3,8.7-5.5c5,0.7,11.6,1.3,18.4-2.7C81.6,9.8,45,6.3,45,6.3S42.6,5.2,39.6,4
				C32.9,6.4,26.8,10.1,21.5,14.8 M69.8,5.6c4.8,1.4,5.7,0,7.4-2.1c-5.1-1.7-10.6-2.8-16.2-3C63.2,2.4,65.8,4.4,69.8,5.6"/>
		</defs>
		<clipPath id="SVGID_6_">
			<use xlink:href="#SVGID_5_"  style="overflow:visible;"/>
		</clipPath>
		<path class="st3" d="M349.9,256.1L38.1-55.8 M351.1,255L39.2-57 M352.2,253.8L40.4-58.1 M353.4,252.7L41.5-59.3 M354.5,251.5
			L42.7-60.4 M355.7,250.3L43.8-61.6 M356.9,249.2L45-62.7 M358,248L46.1-63.9 M359.2,246.9L47.3-65 M360.3,245.7L48.4-66.2
			 M361.5,244.6L49.6-67.4 M362.6,243.4L50.7-68.5 M363.8,242.3L51.9-69.7 M364.9,241.1L53-70.8 M366.1,239.9L54.2-72 M367.2,238.8
			L55.3-73.1 M368.4,237.6L56.5-74.3 M369.5,236.5L57.6-75.4 M370.7,235.3L58.8-76.6 M371.8,234.2L59.9-77.8 M373,233L61.1-78.9
			 M374.1,231.9L62.2-80.1 M375.3,230.7L63.4-81.2 M376.4,229.5L64.5-82.4 M377.6,228.4L65.7-83.5 M378.7,227.2L66.8-84.7
			 M379.9,226.1L68-85.8 M381,224.9L69.1-87 M382.2,223.8L70.3-88.2 M383.3,222.6L71.4-89.3 M384.5,221.5L72.6-90.5 M385.6,220.3
			L73.8-91.6"/>
		<path class="st3" d="M313.1,293L1.2-18.9 M314.2,291.8L2.4-20.1 M315.4,290.7L3.5-21.3 M316.5,289.5L4.7-22.4 M317.7,288.4
			L5.8-23.6 M318.8,287.2L7-24.7 M320,286L8.1-25.9 M321.1,284.9L9.3-27 M322.3,283.7L10.4-28.2 M323.4,282.6L11.6-29.3
			 M324.6,281.4L12.7-30.5 M325.8,280.3L13.9-31.7 M326.9,279.1L15-32.8 M328.1,278L16.2-34 M329.2,276.8L17.3-35.1 M330.4,275.6
			L18.5-36.3 M331.5,274.5L19.6-37.4 M332.7,273.3L20.8-38.6 M333.8,272.2L21.9-39.7 M335,271L23.1-40.9 M336.1,269.9L24.2-42.1
			 M337.3,268.7L25.4-43.2 M338.4,267.6L26.5-44.4 M339.6,266.4L27.7-45.5 M340.7,265.2L28.8-46.7 M341.9,264.1L30-47.8 M343,262.9
			L31.1-49 M344.2,261.8L32.3-50.1 M345.3,260.6L33.4-51.3 M346.5,259.5L34.6-52.5 M347.6,258.3L35.7-53.6 M348.8,257.2L36.9-54.8"
			/>
		<path class="st3" d="M273.2,326.9L-35.7,18 M274.3,325.7L-34.6,16.8 M275.5,324.6L-33.4,15.7 M276.6,323.4L-32.3,14.5
			 M277.8,322.3L-31.1,13.3 M278.9,321.1L-30,12.2 M280.1,320L-28.8,11 M281.2,318.8L-27.7,9.9 M282.4,317.7L-26.5,8.7 M283.6,316.5
			L-25.3,7.6 M284.7,315.3L-24.2,6.4 M285.9,314.2L-23,5.3 M287,313L-21.9,4.1 M288.2,311.9L-20.7,2.9 M289.3,310.7L-19.6,1.8
			 M290.5,309.6L-18.4,0.6 M291.6,308.4L-17.3-0.5 M292.8,307.3L-16.1-1.7 M293.9,306.1L-15-2.8 M295.1,304.9L-13.8-4 M296.2,303.8
			L-12.7-5.1 M297.4,302.6L-11.5-6.3 M298.5,301.5L-10.4-7.5 M299.7,300.3L-9.2-8.6 M300.8,299.2L-8.1-9.8 M302,298L-6.9-10.9
			 M303.1,296.9L-5.8-12.1 M304.3,295.7L-4.6-13.2 M305.4,294.6L-3.5-14.4 M306.6,293.4L-2.3-15.5 M307.7,292.2L-1.2-16.7
			 M308.9,291.1L0-17.9"/>
		<path class="st3" d="M239.3,366.7L-72.6,54.8 M240.5,365.6L-71.4,53.7 M241.6,364.4L-70.3,52.5 M242.8,363.3L-69.1,51.4
			 M243.9,362.1L-68,50.2 M245.1,361L-66.8,49 M246.2,359.8L-65.7,47.9 M247.4,358.7L-64.5,46.7 M248.5,357.5L-63.4,45.6
			 M249.7,356.3L-62.2,44.4 M250.8,355.2L-61.1,43.3 M252,354L-59.9,42.1 M253.1,352.9L-58.7,41 M254.3,351.7L-57.6,39.8
			 M255.4,350.6L-56.4,38.6 M256.6,349.4L-55.3,37.5 M257.7,348.3L-54.1,36.3 M258.9,347.1L-53,35.2 M260,345.9L-51.8,34
			 M261.2,344.8L-50.7,32.9 M262.3,343.6L-49.5,31.7 M263.5,342.5L-48.4,30.6 M264.7,341.3L-47.2,29.4 M265.8,340.2L-46.1,28.2
			 M267,339L-44.9,27.1 M268.1,337.9L-43.8,25.9 M269.3,336.7L-42.6,24.8 M270.4,335.5L-41.5,23.6 M271.6,334.4L-40.3,22.5
			 M272.7,333.2L-39.2,21.3 M273.9,332.1L-38,20.2 M275,330.9L-36.9,19"/>
		<path class="st3" d="M202.5,403.6L-109.4,91.7 M203.6,402.4L-108.3,90.5 M204.8,401.3L-107.1,89.4 M205.9,400.1L-106,88.2
			 M207.1,399L-104.8,87.1 M208.2,397.8L-103.7,85.9 M209.4,396.7L-102.5,84.7 M210.5,395.5L-101.4,83.6 M211.7,394.4L-100.2,82.4
			 M212.8,393.2L-99.1,81.3 M214,392L-97.9,80.1 M215.1,390.9L-96.8,79 M216.3,389.7L-95.6,77.8 M217.4,388.6L-94.5,76.7
			 M218.6,387.4L-93.3,75.5 M219.7,386.3L-92.2,74.3 M220.9,385.1L-91,73.2 M222,384L-89.8,72 M223.2,382.8L-88.7,70.9 M224.3,381.6
			L-87.5,69.7 M225.5,380.5L-86.4,68.6 M226.6,379.3L-85.2,67.4 M227.8,378.2L-84.1,66.3 M228.9,377L-82.9,65.1 M230.1,375.9
			L-81.8,63.9 M231.2,374.7L-80.6,62.8 M232.4,373.6L-79.5,61.6 M233.6,372.4L-78.3,60.5 M234.7,371.2L-77.2,59.3 M235.9,370.1
			L-76,58.2 M237,368.9L-74.9,57 M238.2,367.8L-73.7,55.9"/>
	</g>
	<g class="st1">
		<defs>
			<path id="SVGID_7_" d="M2.6,57c0,31.2,112.9,31.2,112.9,0S90.2,0.5,59.1,0.5S2.6,25.8,2.6,57"/>
		</defs>
		<clipPath id="SVGID_8_">
			<use xlink:href="#SVGID_7_"  style="overflow:visible;"/>
		</clipPath>
		<path class="st4" d="M13.3,32.1c4.2-7.3-14.1-5.4-14.1-5.4s-2.8,15.7-1.4,18.4c1.4,2.6,9.9,0,9.1-2.8C6.1,39.5,9.1,39.5,13.3,32.1
			z M45,6.3c0,0-14.4-6.4-16.1-6.4s-12.1,24-8.6,24c3.5,0,0,12.4,1.8,19.1c1.8,6.7,19.4-3.2,17.6-16.2c-1.8-13,12.3,0.7,27.1-8.2
			C81.6,9.8,45,6.3,45,6.3z M67-5.7c0,0-2.9-1-4.4-1c-1.5,0-11.1,2.4-6.9,3.9s6.9,6.3,14.1,8.5c7.3,2.1,5.7-2.1,11.3-5.7
			C86.8-3.6,75.5-7.1,67-5.7z M116.5,35.2c-2.8-4.2-4.2-1.5-8.5-9.9c-4.2-8.4-2.8-8.4-2.8-8.4s-6.9-5.7-8.5-1.4
			c-1.6,4.2-2.8,2.8-2.8,2.8c-8.5,0-5.7-7.1-11.3-5.7s-14.1,15.5-5.7,17c8.5,1.4,5.7-4.2,15.5-1.4c9.9,2.8,15.5,3.5,15.5,7.1
			C108,38.8,119.3,39.5,116.5,35.2z"/>
	</g>
	<g class="st1">
		<defs>
			<rect id="SVGID_9_" y="-0.1" width="118.1" height="235.1"/>
		</defs>
		<clipPath id="SVGID_10_">
			<use xlink:href="#SVGID_9_"  style="overflow:visible;"/>
		</clipPath>
		<path class="st5" d="M115.5,57c0-31.2-25.3-56.4-56.4-56.4C27.9,0.5,2.6,25.8,2.6,57S115.5,88.1,115.5,57z"/>
		<path class="st6" d="M2.6,56.2c0,29.4,112.9,29.4,112.9,0S2.6,26.8,2.6,56.2"/>
	</g>
	<g class="st1">
		<defs>
			<path id="SVGID_11_" d="M4.6,49.8c-0.3,3.8,0.2,12.7,9.2,18.8c12.7,8.6,91.9,16.5,97.5-11.5c0.6-3.1,1-5.9,1.2-8.6
				c-7.9-9.6-30.7-14.4-53.5-14.4C35.3,34.1,11.5,39.4,4.6,49.8"/>
		</defs>
		<clipPath id="SVGID_12_">
			<use xlink:href="#SVGID_11_"  style="overflow:visible;"/>
		</clipPath>
		<path class="st7" d="M361.8,259.9L49.9-52.1 M362.9,258.7L51-53.2 M364.1,257.5L52.2-54.4 M365.2,256.4L53.3-55.5 M366.4,255.2
			L54.5-56.7 M367.5,254.1L55.6-57.8 M368.7,252.9L56.8-59 M369.8,251.8L57.9-60.2 M371,250.6L59.1-61.3 M372.1,249.5L60.2-62.5
			 M373.3,248.3L61.4-63.6 M374.4,247.1L62.5-64.8 M375.6,246L63.7-65.9 M376.7,244.8L64.8-67.1 M377.9,243.7L66-68.2 M379,242.5
			L67.1-69.4 M380.2,241.4L68.3-70.6 M381.3,240.2L69.4-71.7 M382.5,239.1L70.6-72.9 M383.6,237.9L71.8-74 M384.8,236.7L72.9-75.2
			 M385.9,235.6L74.1-76.3 M387.1,234.4L75.2-77.5 M388.2,233.3L76.4-78.6 M389.4,232.1L77.5-79.8 M390.5,231L78.7-81 M391.7,229.8
			L79.8-82.1 M392.8,228.7L81-83.3 M394,227.5L82.1-84.4 M395.2,226.3L83.3-85.6 M396.3,225.2L84.4-86.7 M397.5,224L85.6-87.9"/>
		<path class="st7" d="M324.9,296.7L13-15.2 M326.1,295.6L14.2-16.4 M327.2,294.4L15.3-17.5 M328.4,293.2L16.5-18.7 M329.5,292.1
			L17.6-19.8 M330.7,290.9L18.8-21 M331.8,289.8L19.9-22.2 M333,288.6L21.1-23.3 M334.1,287.5L22.2-24.5 M335.3,286.3L23.4-25.6
			 M336.4,285.2L24.5-26.8 M337.6,284L25.7-27.9 M338.7,282.8L26.8-29.1 M339.9,281.7L28-30.2 M341,280.5L29.1-31.4 M342.2,279.4
			L30.3-32.5 M343.3,278.2L31.4-33.7 M344.5,277.1L32.6-34.9 M345.6,275.9L33.7-36 M346.8,274.8L34.9-37.2 M347.9,273.6L36-38.3
			 M349.1,272.4L37.2-39.5 M350.2,271.3L38.3-40.6 M351.4,270.1L39.5-41.8 M352.5,269L40.7-42.9 M353.7,267.8L41.8-44.1
			 M354.8,266.7L43-45.3 M356,265.5L44.1-46.4 M357.1,264.4L45.3-47.6 M358.3,263.2L46.4-48.7 M359.4,262L47.6-49.9 M360.6,260.9
			L48.7-51"/>
		<path class="st7" d="M285,330.6L-23.9,21.7 M286.2,329.5L-22.7,20.5 M287.3,328.3L-21.6,19.4 M288.5,327.2L-20.4,18.2 M289.6,326
			L-19.3,17.1 M290.8,324.9L-18.1,15.9 M291.9,323.7L-17,14.8 M293.1,322.5L-15.8,13.6 M294.2,321.4L-14.7,12.4 M295.4,320.2
			L-13.5,11.3 M296.5,319.1L-12.4,10.1 M297.7,317.9L-11.2,9 M298.8,316.8L-10.1,7.8 M300,315.6L-8.9,6.7 M301.1,314.5L-7.8,5.5
			 M302.3,313.3L-6.6,4.4 M303.4,312.1L-5.5,3.2 M304.6,311L-4.3,2.1 M305.7,309.8L-3.2,0.9 M306.9,308.7L-2-0.3 M308,307.5
			L-0.9-1.4 M309.2,306.4L0.3-2.6 M310.3,305.2L1.4-3.7 M311.5,304.1L2.6-4.9 M312.6,302.9L3.7-6 M313.8,301.7L4.9-7.2 M314.9,300.6
			L6-8.3 M316.1,299.4L7.2-9.5 M317.2,298.3L8.3-10.7 M318.4,297.1L9.5-11.8 M319.5,296L10.6-13 M320.7,294.8L11.8-14.1"/>
		<path class="st7" d="M251.1,370.5L-60.7,58.5 M252.3,369.3L-59.6,57.4 M253.4,368.2L-58.4,56.2 M254.6,367L-57.3,55.1
			 M255.7,365.9L-56.1,53.9 M256.9,364.7L-55,52.8 M258,363.5L-53.8,51.6 M259.2,362.4L-52.7,50.5 M260.3,361.2L-51.5,49.3
			 M261.5,360.1L-50.4,48.2 M262.7,358.9L-49.2,47 M263.8,357.8L-48.1,45.8 M265,356.6L-46.9,44.7 M266.1,355.5L-45.8,43.5
			 M267.3,354.3L-44.6,42.4 M268.4,353.1L-43.5,41.2 M269.6,352L-42.3,40.1 M270.7,350.8L-41.2,38.9 M271.9,349.7L-40,37.8
			 M273,348.5L-38.9,36.6 M274.2,347.4L-37.7,35.4 M275.3,346.2L-36.6,34.3 M276.5,345.1L-35.4,33.1 M277.6,343.9L-34.3,32
			 M278.8,342.7L-33.1,30.8 M279.9,341.6L-32,29.7 M281.1,340.4L-30.8,28.5 M282.2,339.3L-29.7,27.4 M283.4,338.1L-28.5,26.2
			 M284.5,337L-27.4,25 M285.7,335.8L-26.2,23.9 M286.8,334.7L-25.1,22.7"/>
		<path class="st7" d="M214.3,407.3L-97.6,95.4 M215.4,406.2L-96.5,94.2 M216.6,405L-95.3,93.1 M217.7,403.9L-94.2,91.9
			 M218.9,402.7L-93,90.8 M220,401.6L-91.8,89.6 M221.2,400.4L-90.7,88.5 M222.3,399.2L-89.5,87.3 M223.5,398.1L-88.4,86.2
			 M224.6,396.9L-87.2,85 M225.8,395.8L-86.1,83.9 M226.9,394.6L-84.9,82.7 M228.1,393.5L-83.8,81.5 M229.2,392.3L-82.6,80.4
			 M230.4,391.2L-81.5,79.2 M231.6,390L-80.3,78.1 M232.7,388.8L-79.2,76.9 M233.9,387.7L-78,75.8 M235,386.5L-76.9,74.6
			 M236.2,385.4L-75.7,73.5 M237.3,384.2L-74.6,72.3 M238.5,383.1L-73.4,71.1 M239.6,381.9L-72.3,70 M240.8,380.8L-71.1,68.8
			 M241.9,379.6L-70,67.7 M243.1,378.4L-68.8,66.5 M244.2,377.3L-67.7,65.4 M245.4,376.1L-66.5,64.2 M246.5,375L-65.4,63.1
			 M247.7,373.8L-64.2,61.9 M248.8,372.7L-63.1,60.7 M250,371.5L-61.9,59.6"/>
	</g>
	<g class="st1">
		<defs>
			<path id="SVGID_13_" d="M2.6,56.2c0,29.4,112.9,29.4,112.9,0c0-14.7-28.2-22.1-56.4-22.1C30.8,34.1,2.6,41.5,2.6,56.2"/>
		</defs>
		<clipPath id="SVGID_14_">
			<use xlink:href="#SVGID_13_"  style="overflow:visible;"/>
		</clipPath>
		<path class="st8" d="M8.9,44.6l-4,3.3c0,0-2.8,12.7,9,20.7c12.7,8.6,91.9,16.5,97.5-11.5C127.1-22.3,8.9,44.6,8.9,44.6z"/>
	</g>
	<g class="st1">
		<defs>
			<rect id="SVGID_15_" y="-0.1" width="118.1" height="235.1"/>
		</defs>
		<clipPath id="SVGID_16_">
			<use xlink:href="#SVGID_15_"  style="overflow:visible;"/>
		</clipPath>
		<path class="st9" d="M2.6,56.2c0,29.4,112.9,29.4,112.9,0S2.6,26.8,2.6,56.2z"/>
		<line class="st10" x1="2" y1="60.7" x2="48.6" y2="138.4"/>
	</g>
	<line class="st0" x1="116.1" y1="60.3" x2="68.3" y2="138.8"/>
	<line class="st0" x1="74.1" y1="33.8" x2="59.1" y2="138.8"/>
	<g class="st1">
		<defs>
			<rect id="SVGID_17_" y="-0.1" width="118.1" height="235.1"/>
		</defs>
		<clipPath id="SVGID_18_">
			<use xlink:href="#SVGID_17_"  style="overflow:visible;"/>
		</clipPath>
		<circle class="st11" cx="1.4" cy="60.7" r="0.7"/>
		<circle class="st11" cx="116.7" cy="60.7" r="0.7"/>
		<circle class="st11" cx="74.8" cy="33.7" r="0.7"/>
	</g>
	<rect x="17.4" y="141.9" class="st12" width="81.4" height="81.4"/>
	<rect x="17.4" y="141.9" class="st13" width="81.4" height="81.4"/>
	<rect x="29.7" y="147.4" class="st14" width="13.3" height="70.4"/>
	<rect x="29.7" y="147.4" class="st15" width="13.3" height="70.4"/>
	<g class="st1">
		<defs>
			<rect id="SVGID_19_" x="52.9" y="186.5" width="10.4" height="29"/>
		</defs>
		<clipPath id="SVGID_20_">
			<use xlink:href="#SVGID_19_"  style="overflow:visible;"/>
		</clipPath>
		<path class="st16" d="M210.9-90.7L-101,221.2 M209.7-91.8l-311.9,311.9 M208.6-93l-311.9,311.9 M207.4-94.1l-311.9,311.9
			 M206.3-95.3l-311.9,311.9 M205.1-96.4l-311.9,311.9 M204-97.6L-108,214.3 M202.8-98.7l-311.9,311.9 M201.6-99.9L-110.3,212
			 M200.5-101l-311.9,311.9 M199.3-102.2l-311.9,311.9 M198.2-103.3l-311.9,311.9 M197-104.5l-311.9,311.9 M195.9-105.6
			l-311.9,311.9 M194.7-106.8l-311.9,311.9 M193.6-107.9l-311.9,311.9 M192.4-109.1l-311.9,311.9 M191.2-110.2l-311.9,311.9
			 M190.1-111.4l-311.9,311.9 M188.9-112.5L-123,199.3 M187.8-113.7l-311.9,311.9 M186.6-114.8L-125.3,197 M185.5-116l-311.9,311.9
			 M184.3-117.1l-311.9,311.9 M183.2-118.3l-311.9,311.9 M182-119.5l-311.9,311.9 M180.9-120.6l-311.9,311.9 M179.7-121.8
			l-311.9,311.9 M178.5-122.9L-133.4,189 M177.4-124.1l-311.9,311.9 M176.2-125.2l-311.9,311.9 M175.1-126.4l-311.9,311.9"/>
		<path class="st16" d="M247.7-53.8L-64.2,258.1 M246.6-55L-65.3,256.9 M245.4-56.1L-66.5,255.8 M244.3-57.3L-67.6,254.6
			 M243.1-58.4L-68.8,253.5 M242-59.6L-70,252.3 M240.8-60.7L-71.1,251.2 M239.7-61.9L-72.3,250 M238.5-63L-73.4,248.9 M237.3-64.2
			L-74.6,247.7 M236.2-65.3L-75.7,246.6 M235-66.5L-76.9,245.4 M233.9-67.6L-78,244.3 M232.7-68.8L-79.2,243.1 M231.6-69.9
			L-80.4,242 M230.4-71.1L-81.5,240.8 M229.3-72.2L-82.7,239.7 M228.1-73.4L-83.8,238.5 M227-74.5L-85,237.3 M225.8-75.7
			L-86.1,236.2 M224.6-76.8L-87.3,235 M223.5-78L-88.4,233.9 M222.3-79.1L-89.6,232.7 M221.2-80.3L-90.8,231.6 M220-81.4
			L-91.9,230.4 M218.9-82.6L-93.1,229.3 M217.7-83.7L-94.2,228.1 M216.6-84.9L-95.4,227 M215.4-86.1L-96.5,225.8 M214.2-87.2
			L-97.7,224.7 M213.1-88.4L-98.8,223.5 M211.9-89.5L-100,222.4"/>
		<path class="st16" d="M281.7-13.9L-27.3,295 M280.5-15.1L-28.4,293.8 M279.4-16.2L-29.6,292.7 M278.2-17.4L-30.7,291.5 M277-18.5
			L-31.9,290.4 M275.9-19.7L-33,289.2 M274.7-20.8L-34.2,288.1 M273.6-22L-35.4,286.9 M272.4-23.1L-36.5,285.8 M271.3-24.3
			L-37.7,284.6 M270.1-25.4L-38.8,283.5 M269-26.6L-40,282.3 M267.8-27.7L-41.1,281.2 M266.7-28.9L-42.3,280 M265.5-30L-43.4,278.9
			 M264.3-31.2L-44.6,277.7 M263.2-32.3L-45.8,276.6 M262-33.5L-46.9,275.4 M260.9-34.6L-48.1,274.3 M259.7-35.8L-49.2,273.1
			 M258.6-36.9L-50.4,272 M257.4-38.1L-51.5,270.8 M256.3-39.2L-52.7,269.7 M255.1-40.4L-53.8,268.5 M253.9-41.5L-55,267.4
			 M252.8-42.7L-56.2,266.2 M251.6-43.9L-57.3,265 M250.5-45L-58.5,263.9 M249.3-46.2L-59.6,262.7 M248.2-47.3L-60.8,261.6
			 M247-48.5L-61.9,260.4 M245.9-49.6L-63.1,259.3"/>
		<path class="st16" d="M321.5,20L9.6,331.8 M320.4,18.8L8.4,330.7 M319.2,17.7L7.3,329.5 M318,16.5L6.1,328.4 M316.9,15.4L5,327.2
			 M315.7,14.2L3.8,326.1 M314.6,13L2.7,324.9 M313.4,11.9L1.5,323.8 M312.3,10.7L0.3,322.6 M311.1,9.6L-0.8,321.5 M310,8.4
			L-2,320.3 M308.8,7.3L-3.1,319.2 M307.6,6.1L-4.3,318 M306.5,5L-5.4,316.9 M305.3,3.8L-6.6,315.7 M304.2,2.7L-7.7,314.6 M303,1.5
			L-8.9,313.4 M301.9,0.4L-10.1,312.3 M300.7-0.8L-11.2,311.1 M299.6-1.9L-12.4,310 M298.4-3.1L-13.5,308.8 M297.3-4.2L-14.7,307.7
			 M296.1-5.4L-15.8,306.5 M294.9-6.5L-17,305.4 M293.8-7.7L-18.1,304.2 M292.6-8.8L-19.3,303.1 M291.5-10L-20.5,301.9 M290.3-11.1
			L-21.6,300.8 M289.2-12.3L-22.8,299.6 M288-13.4L-23.9,298.5 M286.9-14.6L-25.1,297.3 M285.7-15.7L-26.2,296.1"/>
		<path class="st16" d="M358.4,56.8L46.4,368.7 M357.2,55.7L45.3,367.5 M356.1,54.5L44.1,366.4 M354.9,53.4L43,365.2 M353.7,52.2
			L41.8,364.1 M352.6,51.1L40.7,362.9 M351.4,49.9L39.5,361.8 M350.3,48.8L38.4,360.6 M349.1,47.6L37.2,359.5 M348,46.4L36,358.3
			 M346.8,45.3L34.9,357.2 M345.7,44.1L33.7,356 M344.5,43L32.6,354.9 M343.3,41.8L31.4,353.7 M342.2,40.7L30.3,352.6 M341,39.5
			L29.1,351.4 M339.9,38.4L28,350.3 M338.7,37.2L26.8,349.1 M337.6,36.1L25.6,348 M336.4,34.9L24.5,346.8 M335.3,33.8L23.3,345.7
			 M334.1,32.6L22.2,344.5 M333,31.5L21,343.4 M331.8,30.3L19.9,342.2 M330.6,29.2L18.7,341.1 M329.5,28L17.6,339.9 M328.3,26.9
			L16.4,338.8 M327.2,25.7L15.2,337.6 M326,24.6L14.1,336.5 M324.9,23.4L12.9,335.3 M323.7,22.3L11.8,334.2 M322.6,21.1L10.6,333"/>
	</g>
	<rect x="51.4" y="147.4" class="st14" width="13.3" height="70.4"/>
	<rect x="51.4" y="147.4" class="st15" width="13.3" height="70.4"/>
	<rect x="73.2" y="147.4" class="st14" width="13.3" height="70.4"/>
	<rect x="73.2" y="147.4" class="st15" width="13.3" height="70.4"/>
	<path class="st12" d="M85.9,210.3H30.3v-55.6h55.6V210.3z M103.9,210.3v-55.6h5.1v-18h-5.1v-5.1h-18v5.1H30.3v-5.1h-18v5.1H7.2v18
		h5.1v55.6H7.2v18h5.1v5.1h18v-5.1h55.6v5.1h18v-5.1h5.1v-18H103.9z"/>
	<g class="st1">
		<defs>
			<rect id="SVGID_21_" y="-0.1" width="118.1" height="235.1"/>
		</defs>
		<clipPath id="SVGID_22_">
			<use xlink:href="#SVGID_21_"  style="overflow:visible;"/>
		</clipPath>
		<path class="st17" d="M85.9,210.3H30.3v-55.6h55.6V210.3z M103.9,210.3v-55.6h5.1v-18h-5.1v-5.1h-18v5.1H30.3v-5.1h-18v5.1H7.2v18
			h5.1v55.6H7.2v18h5.1v5.1h18v-5.1h55.6v5.1h18v-5.1h5.1v-18H103.9z"/>
	</g>
	<path class="st12" d="M12.3,136.4H7.2v18h5.1 M12.3,136.4H7.2v18h5.1h91.6h5.1v-18h-5.1H12.3H7.2v18h5.1H7.2v-18H12.3H7.2v18h5.1
		H7.2v-18H12.3"/>
	<path class="st18" d="M12.3,136.4H7.2v18h5.1 M12.3,136.4H7.2v18h5.1h91.6h5.1v-18h-5.1H12.3H7.2v18h5.1H7.2v-18H12.3H7.2v18h5.1
		H7.2v-18H12.3"/>
	<path class="st12" d="M12,210.3H6.8v18H12 M12,210.3H6.8v18H12h92.3h5.1v-18h-5.1H12H6.8v18H12H6.8v-18H12H6.8v18H12H6.8v-18H12"/>
	<path class="st18" d="M12,210.3H6.8v18H12 M12,210.3H6.8v18H12h92.3h5.1v-18h-5.1H12H6.8v18H12H6.8v-18H12H6.8v18H12H6.8v-18H12"/>
	<g class="st1">
		<defs>
			<rect id="SVGID_23_" x="15.4" y="155.2" width="11.4" height="7.8"/>
		</defs>
		<clipPath id="SVGID_24_">
			<use xlink:href="#SVGID_23_"  style="overflow:visible;"/>
		</clipPath>
		<path class="st20" d="M147.9-129.2l-308.9,308.9 M146.7-130.3l-308.9,308.9 M145.5-131.5l-308.9,308.9 M144.4-132.6l-308.9,308.9
			 M143.2-133.8l-308.9,308.9 M142.1-134.9L-166.9,174 M140.9-136.1L-168,172.8 M139.8-137.3l-308.9,308.9 M138.6-138.4
			l-308.9,308.9 M137.5-139.6l-308.9,308.9 M136.3-140.7l-308.9,308.9 M135.2-141.9L-173.8,167 M134-143l-308.9,308.9 M132.8-144.2
			l-308.9,308.9 M131.7-145.3l-308.9,308.9 M130.5-146.5l-308.9,308.9 M129.4-147.6l-308.9,308.9 M128.2-148.8l-308.9,308.9
			 M127.1-149.9L-181.9,159 M125.9-151.1L-183,157.8 M124.8-152.2l-308.9,308.9 M123.6-153.4l-308.9,308.9 M122.4-154.5
			l-308.9,308.9 M121.3-155.7l-308.9,308.9 M120.1-156.8l-308.9,308.9 M119-158L-190,150.9 M117.8-159.1l-308.9,308.9 M116.7-160.3
			l-308.9,308.9 M115.5-161.4l-308.9,308.9 M114.4-162.6l-308.9,308.9 M113.2-163.7l-308.9,308.9 M112-164.9L-196.9,144"/>
		<path class="st20" d="M187.7-95.3l-311.9,311.9 M186.5-96.5l-311.9,311.9 M185.4-97.6l-311.9,311.9 M184.2-98.8l-311.9,311.9
			 M183.1-99.9L-128.8,212 M181.9-101.1L-130,210.8 M180.8-102.2l-311.9,311.9 M179.6-103.4l-311.9,311.9 M178.5-104.5l-311.9,311.9
			 M177.3-105.7l-311.9,311.9 M176.1-106.8L-135.8,205 M175-108l-311.9,311.9 M173.8-109.1l-311.9,311.9 M172.7-110.3l-311.9,311.9
			 M171.5-111.4l-311.9,311.9 M170.4-112.6l-311.9,311.9 M169.2-113.7l-311.9,311.9 M168.1-114.9L-143.9,197 M166.9-116L-145,195.8
			 M165.8-117.2l-311.9,311.9 M164.6-118.4l-311.9,311.9 M163.4-119.5l-311.9,311.9 M162.3-120.7l-311.9,311.9 M161.1-121.8
			l-311.9,311.9 M160-123L-152,188.9 M158.8-124.1l-311.9,311.9 M157.7-125.3l-311.9,311.9 M156.5-126.4l-311.9,311.9 M155.4-127.6
			l-311.9,311.9 M154.2-128.7l-311.9,311.9 M153-129.9L-158.9,182 M151.9-131L-160,180.9"/>
		<path class="st20" d="M224.6-58.5L-87.4,253.4 M223.4-59.6L-88.5,252.3 M222.2-60.8L-89.7,251.1 M221.1-61.9L-90.8,250
			 M219.9-63.1L-92,248.8 M218.8-64.2L-93.1,247.7 M217.6-65.4L-94.3,246.5 M216.5-66.5L-95.5,245.4 M215.3-67.7L-96.6,244.2
			 M214.2-68.8L-97.8,243.1 M213-70L-98.9,241.9 M211.8-71.1l-311.9,311.9 M210.7-72.3l-311.9,311.9 M209.5-73.4l-311.9,311.9
			 M208.4-74.6l-311.9,311.9 M207.2-75.7l-311.9,311.9 M206.1-76.9L-105.9,235 M204.9-78L-107,233.8 M203.8-79.2l-311.9,311.9
			 M202.6-80.3l-311.9,311.9 M201.5-81.5l-311.9,311.9 M200.3-82.6l-311.9,311.9 M199.1-83.8l-311.9,311.9 M198-84.9l-311.9,311.9
			 M196.8-86.1l-311.9,311.9 M195.7-87.3l-311.9,311.9 M194.5-88.4l-311.9,311.9 M193.4-89.6l-311.9,311.9 M192.2-90.7l-311.9,311.9
			 M191.1-91.9L-120.9,220 M189.9-93L-122,218.9 M188.7-94.2l-311.9,311.9"/>
		<path class="st20" d="M258.5-18.6L-50.5,290.3 M257.3-19.7L-51.6,289.2 M256.2-20.9L-52.8,288 M255-22L-53.9,286.9 M253.9-23.2
			L-55.1,285.7 M252.7-24.3L-56.2,284.6 M251.5-25.5L-57.4,283.4 M250.4-26.6L-58.5,282.3 M249.2-27.8L-59.7,281.1 M248.1-28.9
			L-60.9,280 M246.9-30.1L-62,278.8 M245.8-31.2L-63.2,277.7 M244.6-32.4L-64.3,276.5 M243.5-33.5L-65.5,275.4 M242.3-34.7
			L-66.6,274.2 M241.2-35.8L-67.8,273.1 M240-37L-68.9,271.9 M238.8-38.1L-70.1,270.8 M237.7-39.3L-71.3,269.6 M236.5-40.4
			L-72.4,268.5 M235.4-41.6L-73.6,267.3 M234.2-42.7L-74.7,266.1 M233.1-43.9L-75.9,265 M231.9-45.1L-77,263.8 M230.8-46.2
			L-78.2,262.7 M229.6-47.4L-79.3,261.5 M228.4-48.5L-80.5,260.4 M227.3-49.7L-81.7,259.2 M226.1-50.8L-82.8,258.1 M225-52
			L-84,256.9 M223.8-53.1L-85.1,255.8 M222.7-54.3L-86.3,254.6"/>
		<path class="st20" d="M298.3,15.3L-13.6,327.2 M297.2,14.1L-14.8,326 M296,13L-15.9,324.9 M294.9,11.8L-17.1,323.7 M293.7,10.7
			L-18.2,322.6 M292.5,9.5L-19.4,321.4 M291.4,8.4L-20.5,320.3 M290.2,7.2L-21.7,319.1 M289.1,6.1L-22.8,318 M287.9,4.9L-24,316.8
			 M286.8,3.8L-25.2,315.7 M285.6,2.6L-26.3,314.5 M284.5,1.5L-27.5,313.4 M283.3,0.3L-28.6,312.2 M282.1-0.8L-29.8,311.1 M281-2
			L-30.9,309.9 M279.8-3.1L-32.1,308.8 M278.7-4.3L-33.2,307.6 M277.5-5.4L-34.4,306.5 M276.4-6.6L-35.6,305.3 M275.2-7.7
			L-36.7,304.2 M274.1-8.9L-37.9,303 M272.9-10L-39,301.9 M271.8-11.2L-40.2,300.7 M270.6-12.3L-41.3,299.6 M269.4-13.5L-42.5,298.4
			 M268.3-14.6L-43.6,297.2 M267.1-15.8L-44.8,296.1 M266-16.9L-46,294.9 M264.8-18.1L-47.1,293.8 M263.7-19.2L-48.3,292.6
			 M262.5-20.4L-49.4,291.5"/>
		<path class="st20" d="M335.2,52.2L23.3,364 M334,51L22.1,362.9 M332.9,49.9L20.9,361.7 M331.7,48.7L19.8,360.6 M330.6,47.5
			L18.6,359.4 M329.4,46.4L17.5,358.3 M328.2,45.2L16.3,357.1 M327.1,44.1L15.2,356 M325.9,42.9L14,354.8 M324.8,41.8L12.9,353.7
			 M323.6,40.6L11.7,352.5 M322.5,39.5L10.5,351.4 M321.3,38.3L9.4,350.2 M320.2,37.2L8.2,349.1 M319,36L7.1,347.9 M317.8,34.9
			L5.9,346.8 M316.7,33.7L4.8,345.6 M315.5,32.6L3.6,344.5 M314.4,31.4L2.5,343.3 M313.2,30.3L1.3,342.2 M312.1,29.1L0.1,341
			 M310.9,28L-1,339.9 M309.8,26.8L-2.2,338.7 M308.6,25.7L-3.3,337.6 M307.5,24.5L-4.5,336.4 M306.3,23.4L-5.6,335.3 M305.1,22.2
			L-6.8,334.1 M304,21.1L-7.9,333 M302.8,19.9L-9.1,331.8 M301.7,18.8L-10.2,330.6 M300.5,17.6L-11.4,329.5 M299.4,16.5L-12.6,328.3
			"/>
	</g>
	<g class="st1">
		<defs>
			<rect id="SVGID_25_" x="89.4" y="155.2" width="11.4" height="7.8"/>
		</defs>
		<clipPath id="SVGID_26_">
			<use xlink:href="#SVGID_25_"  style="overflow:visible;"/>
		</clipPath>
		<path class="st21" d="M221.8-129.2L-87.2,179.7 M220.6-130.3L-88.3,178.6 M219.5-131.5L-89.5,177.4 M218.3-132.6L-90.6,176.3
			 M217.2-133.8L-91.8,175.1 M216-134.9L-92.9,174 M214.8-136.1L-94.1,172.8 M213.7-137.3L-95.3,171.6 M212.5-138.4L-96.4,170.5
			 M211.4-139.6L-97.6,169.3 M210.2-140.7L-98.7,168.2 M209.1-141.9L-99.9,167 M207.9-143L-101,165.9 M206.8-144.2l-308.9,308.9
			 M205.6-145.3l-308.9,308.9 M204.4-146.5l-308.9,308.9 M203.3-147.6l-308.9,308.9 M202.1-148.8l-308.9,308.9 M201-149.9L-108,159
			 M199.8-151.1l-308.9,308.9 M198.7-152.2l-308.9,308.9 M197.5-153.4l-308.9,308.9 M196.4-154.5l-308.9,308.9 M195.2-155.7
			l-308.9,308.9 M194-156.8l-308.9,308.9 M192.9-158L-116,150.9 M191.7-159.1l-308.9,308.9 M190.6-160.3l-308.9,308.9 M189.4-161.4
			l-308.9,308.9 M188.3-162.6l-308.9,308.9 M187.1-163.7l-308.9,308.9 M186-164.9L-123,144"/>
		<path class="st21" d="M261.6-95.3L-50.3,216.6 M260.5-96.5L-51.5,215.4 M259.3-97.6L-52.6,214.3 M258.2-98.8L-53.8,213.1
			 M257-99.9L-54.9,212 M255.8-101.1L-56.1,210.8 M254.7-102.2L-57.2,209.7 M253.5-103.4L-58.4,208.5 M252.4-104.5L-59.6,207.4
			 M251.2-105.7L-60.7,206.2 M250.1-106.8L-61.9,205 M248.9-108L-63,203.9 M247.8-109.1L-64.2,202.7 M246.6-110.3L-65.3,201.6
			 M245.4-111.4L-66.5,200.4 M244.3-112.6L-67.6,199.3 M243.1-113.7L-68.8,198.1 M242-114.9L-69.9,197 M240.8-116L-71.1,195.8
			 M239.7-117.2L-72.3,194.7 M238.5-118.4L-73.4,193.5 M237.4-119.5L-74.6,192.4 M236.2-120.7L-75.7,191.2 M235-121.8L-76.9,190.1
			 M233.9-123L-78,188.9 M232.7-124.1L-79.2,187.8 M231.6-125.3L-80.3,186.6 M230.4-126.4L-81.5,185.5 M229.3-127.6L-82.7,184.3
			 M228.1-128.7L-83.8,183.2 M227-129.9L-85,182 M225.8-131L-86.1,180.9"/>
		<path class="st21" d="M298.5-58.5L-13.5,253.4 M297.3-59.6L-14.6,252.3 M296.2-60.8L-15.8,251.1 M295-61.9L-16.9,250 M293.9-63.1
			L-18.1,248.8 M292.7-64.2L-19.2,247.7 M291.5-65.4L-20.4,246.5 M290.4-66.5L-21.5,245.4 M289.2-67.7L-22.7,244.2 M288.1-68.8
			L-23.9,243.1 M286.9-70L-25,241.9 M285.8-71.1L-26.2,240.8 M284.6-72.3L-27.3,239.6 M283.5-73.4L-28.5,238.5 M282.3-74.6
			L-29.6,237.3 M281.1-75.7L-30.8,236.1 M280-76.9L-31.9,235 M278.8-78L-33.1,233.8 M277.7-79.2L-34.2,232.7 M276.5-80.3
			L-35.4,231.5 M275.4-81.5L-36.6,230.4 M274.2-82.6L-37.7,229.2 M273.1-83.8L-38.9,228.1 M271.9-84.9L-40,226.9 M270.7-86.1
			L-41.2,225.8 M269.6-87.3L-42.3,224.6 M268.4-88.4L-43.5,223.5 M267.3-89.6L-44.6,222.3 M266.1-90.7L-45.8,221.2 M265-91.9
			L-47,220 M263.8-93L-48.1,218.9 M262.7-94.2L-49.3,217.7"/>
		<path class="st21" d="M332.4-18.6L23.5,290.3 M331.2-19.7L22.3,289.2 M330.1-20.9L21.1,288 M328.9-22L20,286.9 M327.8-23.2
			L18.8,285.7 M326.6-24.3L17.7,284.6 M325.5-25.5L16.5,283.4 M324.3-26.6L15.4,282.3 M323.2-27.8L14.2,281.1 M322-28.9L13.1,280
			 M320.8-30.1L11.9,278.8 M319.7-31.2L10.7,277.7 M318.5-32.4L9.6,276.5 M317.4-33.5L8.4,275.4 M316.2-34.7L7.3,274.2 M315.1-35.8
			L6.1,273.1 M313.9-37L5,271.9 M312.8-38.1L3.8,270.8 M311.6-39.3L2.7,269.6 M310.4-40.4L1.5,268.5 M309.3-41.6L0.4,267.3
			 M308.1-42.7L-0.8,266.1 M307-43.9L-2,265 M305.8-45.1L-3.1,263.8 M304.7-46.2L-4.3,262.7 M303.5-47.4L-5.4,261.5 M302.4-48.5
			L-6.6,260.4 M301.2-49.7L-7.7,259.2 M300-50.8L-8.9,258.1 M298.9-52L-10,256.9 M297.7-53.1L-11.2,255.8 M296.6-54.3L-12.4,254.6"
			/>
		<path class="st21" d="M372.2,15.3L60.3,327.2 M371.1,14.1L59.2,326 M369.9,13L58,324.9 M368.8,11.8L56.8,323.7 M367.6,10.7
			L55.7,322.6 M366.5,9.5L54.5,321.4 M365.3,8.4L53.4,320.3 M364.2,7.2L52.2,319.1 M363,6.1L51.1,318 M361.8,4.9L49.9,316.8
			 M360.7,3.8L48.8,315.7 M359.5,2.6L47.6,314.5 M358.4,1.5L46.4,313.4 M357.2,0.3L45.3,312.2 M356.1-0.8L44.1,311.1 M354.9-2
			L43,309.9 M353.8-3.1L41.8,308.8 M352.6-4.3L40.7,307.6 M351.4-5.4L39.5,306.5 M350.3-6.6L38.4,305.3 M349.1-7.7L37.2,304.2
			 M348-8.9L36.1,303 M346.8-10L34.9,301.9 M345.7-11.2L33.7,300.7 M344.5-12.3L32.6,299.6 M343.4-13.5L31.4,298.4 M342.2-14.6
			L30.3,297.2 M341-15.8L29.1,296.1 M339.9-16.9L28,294.9 M338.7-18.1L26.8,293.8 M337.6-19.2L25.7,292.6 M336.4-20.4L24.5,291.5"/>
	</g>
	<g class="st1">
		<defs>
			<rect id="SVGID_27_" x="8.2" y="146.6" width="100" height="4.7"/>
		</defs>
		<clipPath id="SVGID_28_">
			<use xlink:href="#SVGID_27_"  style="overflow:visible;"/>
		</clipPath>
		<path class="st22" d="M348.9,272.3L40-36.6 M350.1,271.2L41.2-37.8 M351.2,270L42.3-38.9 M352.4,268.9L43.5-40.1 M353.5,267.7
			L44.6-41.2 M354.7,266.5L45.8-42.4 M355.8,265.4L46.9-43.6 M357,264.2L48.1-44.7 M358.1,263.1L49.2-45.9 M359.3,261.9L50.4-47
			 M360.4,260.8L51.5-48.2 M361.6,259.6L52.7-49.3 M362.7,258.5L53.8-50.5 M363.9,257.3L55-51.6 M365,256.1L56.1-52.8 M366.2,255
			L57.3-53.9 M367.3,253.8L58.4-55.1 M368.5,252.7L59.6-56.3 M369.6,251.5L60.7-57.4 M370.8,250.4L61.9-58.6 M371.9,249.2L63-59.7
			 M373.1,248.1L64.2-60.9 M374.2,246.9L65.3-62 M375.4,245.7L66.5-63.2 M376.5,244.6L67.6-64.3 M377.7,243.4L68.8-65.5
			 M378.8,242.3L69.9-66.7 M380,241.1L71.1-67.8 M381.1,240L72.2-69 M382.3,238.8L73.4-70.1 M383.4,237.7L74.5-71.3 M384.6,236.5
			L75.7-72.4"/>
		<path class="st22" d="M315,312.2L3.2,0.2 M316.2,311L4.3-0.9 M317.3,309.9L5.5-2.1 M318.5,308.7L6.6-3.2 M319.6,307.5L7.8-4.4
			 M320.8,306.4L8.9-5.5 M321.9,305.2L10.1-6.7 M323.1,304.1L11.2-7.8 M324.2,302.9L12.4-9 M325.4,301.8L13.5-10.2 M326.6,300.6
			L14.7-11.3 M327.7,299.5L15.8-12.5 M328.9,298.3L17-13.6 M330,297.1L18.1-14.8 M331.2,296L19.3-15.9 M332.3,294.8L20.4-17.1
			 M333.5,293.7L21.6-18.2 M334.6,292.5L22.7-19.4 M335.8,291.4L23.9-20.6 M336.9,290.2L25-21.7 M338.1,289.1L26.2-22.9
			 M339.2,287.9L27.3-24 M340.4,286.7L28.5-25.2 M341.5,285.6L29.6-26.3 M342.7,284.4L30.8-27.5 M343.8,283.3L31.9-28.6 M345,282.1
			L33.1-29.8 M346.1,281L34.2-31 M347.3,279.8L35.4-32.1 M348.4,278.7L36.5-33.3 M349.6,277.5L37.7-34.4 M350.7,276.3L38.8-35.6"/>
		<path class="st22" d="M278.2,349L-33.7,37.1 M279.3,347.9L-32.6,35.9 M280.5,346.7L-31.4,34.8 M281.6,345.6L-30.3,33.6
			 M282.8,344.4L-29.1,32.5 M283.9,343.2L-27.9,31.3 M285.1,342.1L-26.8,30.2 M286.2,340.9L-25.6,29 M287.4,339.8L-24.5,27.9
			 M288.5,338.6L-23.3,26.7 M289.7,337.5L-22.2,25.5 M290.8,336.3L-21,24.4 M292,335.2L-19.9,23.2 M293.1,334L-18.7,22.1
			 M294.3,332.8L-17.6,20.9 M295.5,331.7L-16.4,19.8 M296.6,330.5L-15.3,18.6 M297.8,329.4L-14.1,17.5 M298.9,328.2L-13,16.3
			 M300.1,327.1L-11.8,15.1 M301.2,325.9L-10.7,14 M302.4,324.8L-9.5,12.8 M303.5,323.6L-8.4,11.7 M304.7,322.4L-7.2,10.5
			 M305.8,321.3L-6.1,9.4 M307,320.1L-4.9,8.2 M308.1,319L-3.8,7.1 M309.3,317.8L-2.6,5.9 M310.4,316.7L-1.5,4.7 M311.6,315.5
			L-0.3,3.6 M312.7,314.4L0.8,2.4 M313.9,313.2L2,1.3"/>
		<path class="st22" d="M238.3,382.9L-70.6,74 M239.4,381.8L-69.5,72.8 M240.6,380.6L-68.3,71.7 M241.7,379.5L-67.2,70.5
			 M242.9,378.3L-66,69.4 M244,377.2L-64.9,68.2 M245.2,376L-63.7,67.1 M246.3,374.9L-62.6,65.9 M247.5,373.7L-61.4,64.8
			 M248.6,372.5L-60.3,63.6 M249.8,371.4L-59.1,62.4 M250.9,370.2L-58,61.3 M252.1,369.1L-56.8,60.1 M253.3,367.9L-55.6,59
			 M254.4,366.8L-54.5,57.8 M255.6,365.6L-53.3,56.7 M256.7,364.5L-52.2,55.5 M257.9,363.3L-51,54.4 M259,362.1L-49.9,53.2
			 M260.2,361L-48.7,52.1 M261.3,359.8L-47.6,50.9 M262.5,358.7L-46.4,49.7 M263.6,357.5L-45.3,48.6 M264.8,356.4L-44.1,47.4
			 M265.9,355.2L-43,46.3 M267.1,354.1L-41.8,45.1 M268.2,352.9L-40.7,44 M269.4,351.7L-39.5,42.8 M270.5,350.6L-38.4,41.7
			 M271.7,349.4L-37.2,40.5 M272.8,348.3L-36.1,39.3 M274,347.1L-34.9,38.2"/>
		<path class="st22" d="M204.4,422.8l-311.9-311.9 M205.6,421.6l-311.9-311.9 M206.7,420.5l-311.9-311.9 M207.9,419.3L-104,107.4
			 M209,418.2l-311.9-311.9 M210.2,417l-311.9-311.9 M211.3,415.9l-311.9-311.9 M212.5,414.7L-99.4,102.8 M213.6,413.5L-98.3,101.6
			 M214.8,412.4L-97.1,100.5 M215.9,411.2L-96,99.3 M217.1,410.1L-94.8,98.2 M218.2,408.9L-93.7,97 M219.4,407.8L-92.5,95.8
			 M220.5,406.6L-91.4,94.7 M221.7,405.5L-90.2,93.5 M222.8,404.3L-89,92.4 M224,403.1L-87.9,91.2 M225.1,402L-86.7,90.1
			 M226.3,400.8L-85.6,88.9 M227.4,399.7L-84.4,87.8 M228.6,398.5L-83.3,86.6 M229.7,397.4L-82.1,85.4 M230.9,396.2L-81,84.3
			 M232,395.1L-79.8,83.1 M233.2,393.9L-78.7,82 M234.4,392.7L-77.5,80.8 M235.5,391.6L-76.4,79.7 M236.7,390.4L-75.2,78.5
			 M237.8,389.3L-74.1,77.4 M239,388.1L-72.9,76.2 M240.1,387L-71.8,75"/>
		<path class="st22" d="M167.6,459.6l-311.9-311.9 M168.7,458.5l-311.9-311.9 M169.9,457.3L-142,145.4 M171,456.2l-311.9-311.9
			 M172.2,455l-311.9-311.9 M173.3,453.9l-311.9-311.9 M174.5,452.7l-311.9-311.9 M175.6,451.6l-311.9-311.9 M176.8,450.4
			l-311.9-311.9 M177.9,449.2L-134,137.3 M179.1,448.1l-311.9-311.9 M180.2,446.9L-131.7,135 M181.4,445.8l-311.9-311.9
			 M182.5,444.6l-311.9-311.9 M183.7,443.5l-311.9-311.9 M184.8,442.3l-311.9-311.9 M186,441.2l-311.9-311.9 M187.1,440
			l-311.9-311.9 M188.3,438.8l-311.9-311.9 M189.4,437.7l-311.9-311.9 M190.6,436.5l-311.9-311.9 M191.7,435.4l-311.9-311.9
			 M192.9,434.2L-119,122.3 M194,433.1l-311.9-311.9 M195.2,431.9L-116.7,120 M196.3,430.8l-311.9-311.9 M197.5,429.6l-311.9-311.9
			 M198.6,428.4l-311.9-311.9 M199.8,427.3l-311.9-311.9 M201,426.1l-311.9-311.9 M202.1,425l-311.9-311.9 M203.3,423.8
			l-311.9-311.9"/>
	</g>
	<g class="st1">
		<defs>
			<rect id="SVGID_29_" x="8.2" y="219.3" width="100" height="5.7"/>
		</defs>
		<clipPath id="SVGID_30_">
			<use xlink:href="#SVGID_29_"  style="overflow:visible;"/>
		</clipPath>
		<path class="st23" d="M348.9,346L40,37.1 M350.1,344.9L41.2,35.9 M351.2,343.7L42.3,34.8 M352.4,342.6L43.5,33.6 M353.5,341.4
			L44.6,32.5 M354.7,340.3L45.8,31.3 M355.8,339.1L46.9,30.2 M357,337.9L48.1,29 M358.1,336.8L49.2,27.8 M359.3,335.6L50.4,26.7
			 M360.4,334.5L51.5,25.5 M361.6,333.3L52.7,24.4 M362.7,332.2L53.8,23.2 M363.9,331L55,22.1 M365,329.9L56.1,20.9 M366.2,328.7
			L57.3,19.8 M367.3,327.5L58.4,18.6 M368.5,326.4L59.6,17.4 M369.6,325.2L60.7,16.3 M370.8,324.1L61.9,15.1 M371.9,322.9L63,14
			 M373.1,321.8L64.2,12.8 M374.2,320.6L65.3,11.7 M375.4,319.5L66.5,10.5 M376.5,318.3L67.6,9.4 M377.7,317.1L68.8,8.2 M378.8,316
			L69.9,7.1 M380,314.8L71.1,5.9 M381.1,313.7L72.2,4.7 M382.3,312.5L73.4,3.6 M383.4,311.4L74.5,2.4 M384.6,310.2L75.7,1.3"/>
		<path class="st23" d="M315,385.9L3.2,73.9 M316.2,384.7L4.3,72.8 M317.3,383.6L5.5,71.6 M318.5,382.4L6.6,70.5 M319.6,381.2
			L7.8,69.3 M320.8,380.1L8.9,68.2 M321.9,378.9L10.1,67 M323.1,377.8L11.2,65.9 M324.2,376.6L12.4,64.7 M325.4,375.5L13.5,63.5
			 M326.6,374.3L14.7,62.4 M327.7,373.2L15.8,61.2 M328.9,372L17,60.1 M330,370.9L18.1,58.9 M331.2,369.7L19.3,57.8 M332.3,368.5
			L20.4,56.6 M333.5,367.4L21.6,55.5 M334.6,366.2L22.7,54.3 M335.8,365.1L23.9,53.1 M336.9,363.9L25,52 M338.1,362.8L26.2,50.8
			 M339.2,361.6L27.3,49.7 M340.4,360.5L28.5,48.5 M341.5,359.3L29.6,47.4 M342.7,358.1L30.8,46.2 M343.8,357L31.9,45.1 M345,355.8
			L33.1,43.9 M346.1,354.7L34.2,42.8 M347.3,353.5L35.4,41.6 M348.4,352.4L36.5,40.4 M349.6,351.2L37.7,39.3 M350.7,350.1L38.8,38.1
			"/>
		<path class="st23" d="M278.2,422.7L-33.7,110.8 M279.3,421.6L-32.6,109.6 M280.5,420.4L-31.4,108.5 M281.6,419.3L-30.3,107.3
			 M282.8,418.1L-29.1,106.2 M283.9,416.9L-27.9,105 M285.1,415.8L-26.8,103.9 M286.2,414.6L-25.6,102.7 M287.4,413.5L-24.5,101.6
			 M288.5,412.3L-23.3,100.4 M289.7,411.2L-22.2,99.2 M290.8,410L-21,98.1 M292,408.9L-19.9,96.9 M293.1,407.7L-18.7,95.8
			 M294.3,406.6L-17.6,94.6 M295.5,405.4L-16.4,93.5 M296.6,404.2L-15.3,92.3 M297.8,403.1L-14.1,91.2 M298.9,401.9L-13,90
			 M300.1,400.8L-11.8,88.8 M301.2,399.6L-10.7,87.7 M302.4,398.5L-9.5,86.5 M303.5,397.3L-8.4,85.4 M304.7,396.2L-7.2,84.2
			 M305.8,395L-6.1,83.1 M307,393.8L-4.9,81.9 M308.1,392.7L-3.8,80.8 M309.3,391.5L-2.6,79.6 M310.4,390.4L-1.5,78.5 M311.6,389.2
			L-0.3,77.3 M312.7,388.1L0.8,76.1 M313.9,386.9L2,75"/>
		<path class="st23" d="M238.3,456.6L-70.6,147.7 M239.4,455.5L-69.5,146.6 M240.6,454.3L-68.3,145.4 M241.7,453.2L-67.2,144.2
			 M242.9,452L-66,143.1 M244,450.9L-64.9,141.9 M245.2,449.7L-63.7,140.8 M246.3,448.6L-62.6,139.6 M247.5,447.4L-61.4,138.5
			 M248.6,446.3L-60.3,137.3 M249.8,445.1L-59.1,136.2 M250.9,443.9L-58,135 M252.1,442.8L-56.8,133.8 M253.3,441.6L-55.6,132.7
			 M254.4,440.5L-54.5,131.5 M255.6,439.3L-53.3,130.4 M256.7,438.2L-52.2,129.2 M257.9,437L-51,128.1 M259,435.9L-49.9,126.9
			 M260.2,434.7L-48.7,125.8 M261.3,433.5L-47.6,124.6 M262.5,432.4L-46.4,123.4 M263.6,431.2L-45.3,122.3 M264.8,430.1L-44.1,121.1
			 M265.9,428.9L-43,120 M267.1,427.8L-41.8,118.8 M268.2,426.6L-40.7,117.7 M269.4,425.5L-39.5,116.5 M270.5,424.3L-38.4,115.4
			 M271.7,423.1L-37.2,114.2 M272.8,422L-36.1,113.1 M274,420.8L-34.9,111.9"/>
		<path class="st23" d="M204.4,496.5l-311.9-311.9 M205.6,495.3l-311.9-311.9 M206.7,494.2l-311.9-311.9 M207.9,493L-104,181.1
			 M209,491.9l-311.9-311.9 M210.2,490.7l-311.9-311.9 M211.3,489.6l-311.9-311.9 M212.5,488.4L-99.4,176.5 M213.6,487.2
			L-98.3,175.3 M214.8,486.1L-97.1,174.2 M215.9,484.9L-96,173 M217.1,483.8L-94.8,171.9 M218.2,482.6L-93.7,170.7 M219.4,481.5
			L-92.5,169.5 M220.5,480.3L-91.4,168.4 M221.7,479.2L-90.2,167.2 M222.8,478L-89,166.1 M224,476.9L-87.9,164.9 M225.1,475.7
			L-86.7,163.8 M226.3,474.5L-85.6,162.6 M227.4,473.4L-84.4,161.5 M228.6,472.2L-83.3,160.3 M229.7,471.1L-82.1,159.1 M230.9,469.9
			L-81,158 M232,468.8L-79.8,156.8 M233.2,467.6L-78.7,155.7 M234.4,466.5L-77.5,154.5 M235.5,465.3L-76.4,153.4 M236.7,464.1
			L-75.2,152.2 M237.8,463L-74.1,151.1 M239,461.8L-72.9,149.9 M240.1,460.7L-71.8,148.8"/>
	</g>
	<g class="st1">
		<defs>
			<rect id="SVGID_31_" x="58.6" y="166.9" width="4.7" height="39.1"/>
		</defs>
		<clipPath id="SVGID_32_">
			<use xlink:href="#SVGID_31_"  style="overflow:visible;"/>
		</clipPath>
		<path class="st24" d="M171-121.4l-308.9,308.9 M169.9-122.6L-139,186.3 M168.7-123.7l-308.9,308.9 M167.6-124.9L-141.4,184
			 M166.4-126l-308.9,308.9 M165.3-127.2l-308.9,308.9 M164.1-128.4l-308.9,308.9 M163-129.5L-146,179.4 M161.8-130.7l-308.9,308.9
			 M160.6-131.8l-308.9,308.9 M159.5-133l-308.9,308.9 M158.3-134.1l-308.9,308.9 M157.2-135.3l-308.9,308.9 M156-136.4
			l-308.9,308.9 M154.9-137.6l-308.9,308.9 M153.7-138.7l-308.9,308.9 M152.6-139.9L-156.4,169 M151.4-141l-308.9,308.9
			 M150.3-142.2l-308.9,308.9 M149.1-143.3l-308.9,308.9 M147.9-144.5L-161,164.4 M146.8-145.6l-308.9,308.9 M145.6-146.8
			l-308.9,308.9 M144.5-147.9L-164.5,161 M143.3-149.1l-308.9,308.9 M142.2-150.2l-308.9,308.9 M141-151.4l-308.9,308.9
			 M139.9-152.5l-308.9,308.9 M138.7-153.7l-308.9,308.9 M137.5-154.8l-308.9,308.9 M136.4-156l-308.9,308.9 M135.2-157.1
			l-308.9,308.9"/>
		<path class="st24" d="M210.9-87.6L-101,224.3 M209.7-88.7l-311.9,311.9 M208.6-89.9L-103.3,222 M207.4-91l-311.9,311.9
			 M206.3-92.2l-311.9,311.9 M205.1-93.3l-311.9,311.9 M204-94.5L-108,217.4 M202.8-95.6l-311.9,311.9 M201.6-96.8l-311.9,311.9
			 M200.5-97.9l-311.9,311.9 M199.3-99.1l-311.9,311.9 M198.2-100.2l-311.9,311.9 M197-101.4l-311.9,311.9 M195.9-102.5
			l-311.9,311.9 M194.7-103.7l-311.9,311.9 M193.6-104.8L-118.4,207 M192.4-106l-311.9,311.9 M191.2-107.1l-311.9,311.9
			 M190.1-108.3l-311.9,311.9 M188.9-109.5L-123,202.4 M187.8-110.6l-311.9,311.9 M186.6-111.8l-311.9,311.9 M185.5-112.9
			L-126.5,199 M184.3-114.1l-311.9,311.9 M183.2-115.2l-311.9,311.9 M182-116.4l-311.9,311.9 M180.9-117.5l-311.9,311.9
			 M179.7-118.7l-311.9,311.9 M178.5-119.8l-311.9,311.9 M177.4-121l-311.9,311.9 M176.2-122.1l-311.9,311.9 M175.1-123.3
			l-311.9,311.9"/>
		<path class="st24" d="M247.7-50.7L-64.2,261.2 M246.6-51.9L-65.3,260 M245.4-53L-66.5,258.9 M244.3-54.2L-67.6,257.7 M243.1-55.3
			L-68.8,256.6 M242-56.5L-70,255.4 M240.8-57.6L-71.1,254.3 M239.7-58.8L-72.3,253.1 M238.5-59.9L-73.4,252 M237.3-61.1
			L-74.6,250.8 M236.2-62.2L-75.7,249.7 M235-63.4L-76.9,248.5 M233.9-64.5L-78,247.3 M232.7-65.7L-79.2,246.2 M231.6-66.8
			L-80.4,245 M230.4-68L-81.5,243.9 M229.3-69.1L-82.7,242.7 M228.1-70.3L-83.8,241.6 M227-71.4L-85,240.4 M225.8-72.6L-86.1,239.3
			 M224.6-73.7L-87.3,238.1 M223.5-74.9L-88.4,237 M222.3-76.1L-89.6,235.8 M221.2-77.2L-90.8,234.7 M220-78.4L-91.9,233.5
			 M218.9-79.5L-93.1,232.4 M217.7-80.7L-94.2,231.2 M216.6-81.8L-95.4,230.1 M215.4-83L-96.5,228.9 M214.2-84.1L-97.7,227.8
			 M213.1-85.3L-98.8,226.6 M211.9-86.4L-100,225.5"/>
		<path class="st24" d="M281.7-10.8L-27.3,298.1 M280.5-12L-28.4,296.9 M279.4-13.1L-29.6,295.8 M278.2-14.3L-30.7,294.6 M277-15.4
			L-31.9,293.5 M275.9-16.6L-33,292.3 M274.7-17.7L-34.2,291.2 M273.6-18.9L-35.4,290 M272.4-20L-36.5,288.9 M271.3-21.2
			L-37.7,287.7 M270.1-22.3L-38.8,286.6 M269-23.5L-40,285.4 M267.8-24.6L-41.1,284.3 M266.7-25.8L-42.3,283.1 M265.5-26.9
			L-43.4,282 M264.3-28.1L-44.6,280.8 M263.2-29.2L-45.8,279.7 M262-30.4L-46.9,278.5 M260.9-31.5L-48.1,277.4 M259.7-32.7
			L-49.2,276.2 M258.6-33.9L-50.4,275 M257.4-35L-51.5,273.9 M256.3-36.2L-52.7,272.7 M255.1-37.3L-53.8,271.6 M253.9-38.5
			L-55,270.4 M252.8-39.6L-56.2,269.3 M251.6-40.8L-57.3,268.1 M250.5-41.9L-58.5,267 M249.3-43.1L-59.6,265.8 M248.2-44.2
			L-60.8,264.7 M247-45.4L-61.9,263.5 M245.9-46.5L-63.1,262.4"/>
		<path class="st24" d="M321.5,23L9.6,334.9 M320.4,21.9L8.4,333.8 M319.2,20.7L7.3,332.6 M318,19.6L6.1,331.5 M316.9,18.4L5,330.3
			 M315.7,17.3L3.8,329.2 M314.6,16.1L2.7,328 M313.4,15L1.5,326.9 M312.3,13.8L0.3,325.7 M311.1,12.7L-0.8,324.6 M310,11.5
			L-2,323.4 M308.8,10.4L-3.1,322.3 M307.6,9.2L-4.3,321.1 M306.5,8.1L-5.4,320 M305.3,6.9L-6.6,318.8 M304.2,5.8L-7.7,317.7
			 M303,4.6L-8.9,316.5 M301.9,3.5L-10.1,315.4 M300.7,2.3L-11.2,314.2 M299.6,1.2L-12.4,313.1 M298.4,0L-13.5,311.9 M297.3-1.1
			L-14.7,310.8 M296.1-2.3L-15.8,309.6 M294.9-3.4L-17,308.4 M293.8-4.6L-18.1,307.3 M292.6-5.7L-19.3,306.1 M291.5-6.9L-20.5,305
			 M290.3-8L-21.6,303.8 M289.2-9.2L-22.8,302.7 M288-10.3L-23.9,301.5 M286.9-11.5L-25.1,300.4 M285.7-12.6L-26.2,299.2"/>
		<path class="st24" d="M358.4,59.9L46.4,371.8 M357.2,58.8L45.3,370.6 M356.1,57.6L44.1,369.5 M354.9,56.4L43,368.3 M353.7,55.3
			L41.8,367.2 M352.6,54.1L40.7,366 M351.4,53L39.5,364.9 M350.3,51.8L38.4,363.7 M349.1,50.7L37.2,362.6 M348,49.5L36,361.4
			 M346.8,48.4L34.9,360.3 M345.7,47.2L33.7,359.1 M344.5,46.1L32.6,358 M343.3,44.9L31.4,356.8 M342.2,43.8L30.3,355.7 M341,42.6
			L29.1,354.5 M339.9,41.5L28,353.4 M338.7,40.3L26.8,352.2 M337.6,39.2L25.6,351.1 M336.4,38L24.5,349.9 M335.3,36.9L23.3,348.8
			 M334.1,35.7L22.2,347.6 M333,34.6L21,346.5 M331.8,33.4L19.9,345.3 M330.6,32.3L18.7,344.2 M329.5,31.1L17.6,343 M328.3,30
			L16.4,341.9 M327.2,28.8L15.2,340.7 M326,27.7L14.1,339.5 M324.9,26.5L12.9,338.4 M323.7,25.4L11.8,337.2 M322.6,24.2L10.6,336.1"
			/>
	</g>
	<g class="st1">
		<defs>
			<rect id="SVGID_33_" x="36.4" y="167.9" width="4.7" height="39.1"/>
		</defs>
		<clipPath id="SVGID_34_">
			<use xlink:href="#SVGID_33_"  style="overflow:visible;"/>
		</clipPath>
		<path class="st25" d="M148.9-120.5l-308.9,308.9 M147.7-121.6l-308.9,308.9 M146.5-122.8l-308.9,308.9 M145.4-123.9L-163.6,185
			 M144.2-125.1l-308.9,308.9 M143.1-126.2l-308.9,308.9 M141.9-127.4L-167,181.5 M140.8-128.5l-308.9,308.9 M139.6-129.7
			l-308.9,308.9 M138.5-130.8l-308.9,308.9 M137.3-132l-308.9,308.9 M136.1-133.1l-308.9,308.9 M135-134.3L-174,174.6 M133.8-135.4
			l-308.9,308.9 M132.7-136.6l-308.9,308.9 M131.5-137.7l-308.9,308.9 M130.4-138.9L-178.6,170 M129.2-140l-308.9,308.9
			 M128.1-141.2l-308.9,308.9 M126.9-142.3L-182,166.6 M125.7-143.5l-308.9,308.9 M124.6-144.6l-308.9,308.9 M123.4-145.8
			l-308.9,308.9 M122.3-146.9L-186.7,162 M121.1-148.1l-308.9,308.9 M120-149.3L-189,159.6 M118.8-150.4l-308.9,308.9 M117.7-151.6
			l-308.9,308.9 M116.5-152.7l-308.9,308.9 M115.3-153.9L-193.6,155 M114.2-155l-308.9,308.9 M113-156.2l-308.9,308.9"/>
		<path class="st25" d="M188.7-86.6l-311.9,311.9 M187.5-87.7l-311.9,311.9 M186.4-88.9L-125.5,223 M185.2-90.1l-311.9,311.9
			 M184.1-91.2l-311.9,311.9 M182.9-92.4L-129,219.5 M181.8-93.5l-311.9,311.9 M180.6-94.7l-311.9,311.9 M179.5-95.8l-311.9,311.9
			 M178.3-97l-311.9,311.9 M177.1-98.1l-311.9,311.9 M176-99.3l-311.9,311.9 M174.8-100.4l-311.9,311.9 M173.7-101.6l-311.9,311.9
			 M172.5-102.7l-311.9,311.9 M171.4-103.9L-140.6,208 M170.2-105l-311.9,311.9 M169.1-106.2l-311.9,311.9 M167.9-107.3L-144,204.6
			 M166.7-108.5l-311.9,311.9 M165.6-109.6l-311.9,311.9 M164.4-110.8l-311.9,311.9 M163.3-111.9L-148.6,200 M162.1-113.1
			l-311.9,311.9 M161-114.2L-151,197.7 M159.8-115.4l-311.9,311.9 M158.7-116.5l-311.9,311.9 M157.5-117.7l-311.9,311.9
			 M156.3-118.8L-155.6,193 M155.2-120l-311.9,311.9 M154-121.1l-311.9,311.9 M152.9-122.3L-159,189.6"/>
		<path class="st25" d="M225.5-49.7L-86.4,262.1 M224.4-50.9L-87.5,261 M223.2-52L-88.7,259.8 M222.1-53.2L-89.8,258.7 M220.9-54.3
			L-91,257.5 M219.8-55.5L-92.2,256.4 M218.6-56.6L-93.3,255.2 M217.5-57.8L-94.5,254.1 M216.3-59L-95.6,252.9 M215.2-60.1
			L-96.8,251.8 M214-61.3L-97.9,250.6 M212.8-62.4L-99.1,249.5 M211.7-63.6l-311.9,311.9 M210.5-64.7l-311.9,311.9 M209.4-65.9
			L-102.6,246 M208.2-67l-311.9,311.9 M207.1-68.2l-311.9,311.9 M205.9-69.3L-106,242.6 M204.8-70.5l-311.9,311.9 M203.6-71.6
			l-311.9,311.9 M202.4-72.8l-311.9,311.9 M201.3-73.9L-110.6,238 M200.1-75.1l-311.9,311.9 M199-76.2l-311.9,311.9 M197.8-77.4
			l-311.9,311.9 M196.7-78.5l-311.9,311.9 M195.5-79.7l-311.9,311.9 M194.4-80.8l-311.9,311.9 M193.2-82l-311.9,311.9 M192-83.1
			l-311.9,311.9 M190.9-84.3L-121,227.6 M189.7-85.4l-311.9,311.9"/>
		<path class="st25" d="M259.5-9.8L-49.5,299.1 M258.3-11L-50.6,297.9 M257.2-12.1L-51.8,296.8 M256-13.3L-52.9,295.6 M254.9-14.4
			L-54.1,294.5 M253.7-15.6L-55.2,293.3 M252.5-16.8L-56.4,292.1 M251.4-17.9L-57.6,291 M250.2-19.1L-58.7,289.8 M249.1-20.2
			L-59.9,288.7 M247.9-21.4L-61,287.5 M246.8-22.5L-62.2,286.4 M245.6-23.7L-63.3,285.2 M244.5-24.8L-64.5,284.1 M243.3-26
			L-65.6,282.9 M242.1-27.1L-66.8,281.8 M241-28.3L-68,280.6 M239.8-29.4L-69.1,279.5 M238.7-30.6L-70.3,278.3 M237.5-31.7
			L-71.4,277.2 M236.4-32.9L-72.6,276 M235.2-34L-73.7,274.9 M234.1-35.2L-74.9,273.7 M232.9-36.3L-76,272.6 M231.7-37.5
			L-77.2,271.4 M230.6-38.6L-78.3,270.3 M229.4-39.8L-79.5,269.1 M228.3-40.9L-80.7,268 M227.1-42.1L-81.8,266.8 M226-43.2
			L-83,265.7 M224.8-44.4L-84.1,264.5 M223.7-45.5L-85.3,263.4"/>
		<path class="st25" d="M299.3,24L-12.6,335.9 M298.2,22.9L-13.8,334.8 M297,21.7L-14.9,333.6 M295.9,20.6L-16.1,332.5 M294.7,19.4
			L-17.2,331.3 M293.5,18.3L-18.4,330.2 M292.4,17.1L-19.5,329 M291.2,16L-20.7,327.9 M290.1,14.8L-21.9,326.7 M288.9,13.7
			L-23,325.5 M287.8,12.5L-24.2,324.4 M286.6,11.4L-25.3,323.2 M285.5,10.2L-26.5,322.1 M284.3,9.1L-27.6,320.9 M283.1,7.9
			L-28.8,319.8 M282,6.8L-29.9,318.6 M280.8,5.6L-31.1,317.5 M279.7,4.5L-32.2,316.3 M278.5,3.3L-33.4,315.2 M277.4,2.1L-34.6,314
			 M276.2,1L-35.7,312.9 M275.1-0.2L-36.9,311.7 M273.9-1.3L-38,310.6 M272.7-2.5L-39.2,309.4 M271.6-3.6L-40.3,308.3 M270.4-4.8
			L-41.5,307.1 M269.3-5.9L-42.6,306 M268.1-7.1L-43.8,304.8 M267-8.2L-45,303.7 M265.8-9.4L-46.1,302.5 M264.7-10.5L-47.3,301.4
			 M263.5-11.7L-48.4,300.2"/>
		<path class="st25" d="M336.2,60.9L24.2,372.8 M335,59.7L23.1,371.6 M333.9,58.6L21.9,370.5 M332.7,57.4L20.8,369.3 M331.6,56.3
			L19.6,368.2 M330.4,55.1L18.5,367 M329.2,54L17.3,365.9 M328.1,52.8L16.2,364.7 M326.9,51.7L15,363.6 M325.8,50.5L13.8,362.4
			 M324.6,49.4L12.7,361.3 M323.5,48.2L11.5,360.1 M322.3,47.1L10.4,359 M321.2,45.9L9.2,357.8 M320,44.8L8.1,356.6 M318.8,43.6
			L6.9,355.5 M317.7,42.5L5.8,354.3 M316.5,41.3L4.6,353.2 M315.4,40.2L3.5,352 M314.2,39L2.3,350.9 M313.1,37.9L1.1,349.7
			 M311.9,36.7L0,348.6 M310.8,35.6L-1.2,347.4 M309.6,34.4L-2.3,346.3 M308.4,33.2L-3.5,345.1 M307.3,32.1L-4.6,344 M306.1,30.9
			L-5.8,342.8 M305,29.8L-6.9,341.7 M303.8,28.6L-8.1,340.5 M302.7,27.5L-9.3,339.4 M301.5,26.3L-10.4,338.2 M300.4,25.2
			L-11.6,337.1"/>
	</g>
	<g class="st1">
		<defs>
			<rect id="SVGID_35_" x="78" y="167.9" width="4.7" height="39.1"/>
		</defs>
		<clipPath id="SVGID_36_">
			<use xlink:href="#SVGID_35_"  style="overflow:visible;"/>
		</clipPath>
		<path class="st26" d="M190.5-120.5l-308.9,308.9 M189.4-121.6l-308.9,308.9 M188.2-122.8l-308.9,308.9 M187.1-123.9L-121.9,185
			 M185.9-125.1L-123,183.8 M184.7-126.2l-308.9,308.9 M183.6-127.4l-308.9,308.9 M182.4-128.5l-308.9,308.9 M181.3-129.7
			l-308.9,308.9 M180.1-130.8l-308.9,308.9 M179-132L-130,176.9 M177.8-133.1l-308.9,308.9 M176.7-134.3l-308.9,308.9 M175.5-135.4
			l-308.9,308.9 M174.3-136.6l-308.9,308.9 M173.2-137.7l-308.9,308.9 M172-138.9L-136.9,170 M170.9-140l-308.9,308.9 M169.7-141.2
			l-308.9,308.9 M168.6-142.3l-308.9,308.9 M167.4-143.5l-308.9,308.9 M166.3-144.6l-308.9,308.9 M165.1-145.8l-308.9,308.9
			 M163.9-146.9L-145,162 M162.8-148.1l-308.9,308.9 M161.6-149.3l-308.9,308.9 M160.5-150.4l-308.9,308.9 M159.3-151.6
			l-308.9,308.9 M158.2-152.7l-308.9,308.9 M157-153.9L-151.9,155 M155.9-155l-308.9,308.9 M154.7-156.2l-308.9,308.9"/>
		<path class="st26" d="M230.4-86.6L-81.6,225.3 M229.2-87.7L-82.7,224.1 M228.1-88.9L-83.9,223 M226.9-90.1L-85,221.8 M225.7-91.2
			L-86.2,220.7 M224.6-92.4L-87.3,219.5 M223.4-93.5L-88.5,218.4 M222.3-94.7L-89.7,217.2 M221.1-95.8L-90.8,216.1 M220-97
			L-92,214.9 M218.8-98.1L-93.1,213.8 M217.7-99.3L-94.3,212.6 M216.5-100.4L-95.4,211.5 M215.3-101.6L-96.6,210.3 M214.2-102.7
			L-97.7,209.2 M213-103.9L-98.9,208 M211.9-105l-311.9,311.9 M210.7-106.2l-311.9,311.9 M209.6-107.3l-311.9,311.9 M208.4-108.5
			l-311.9,311.9 M207.3-109.6l-311.9,311.9 M206.1-110.8l-311.9,311.9 M204.9-111.9L-107,200 M203.8-113.1l-311.9,311.9
			 M202.6-114.2l-311.9,311.9 M201.5-115.4l-311.9,311.9 M200.3-116.5l-311.9,311.9 M199.2-117.7l-311.9,311.9 M198-118.8
			L-113.9,193 M196.9-120l-311.9,311.9 M195.7-121.1l-311.9,311.9 M194.5-122.3l-311.9,311.9"/>
		<path class="st26" d="M267.2-49.7L-44.7,262.1 M266.1-50.9L-45.9,261 M264.9-52L-47,259.8 M263.8-53.2L-48.2,258.7 M262.6-54.3
			L-49.3,257.5 M261.4-55.5L-50.5,256.4 M260.3-56.6L-51.6,255.2 M259.1-57.8L-52.8,254.1 M258-59L-54,252.9 M256.8-60.1
			L-55.1,251.8 M255.7-61.3L-56.3,250.6 M254.5-62.4L-57.4,249.5 M253.4-63.6L-58.6,248.3 M252.2-64.7L-59.7,247.2 M251-65.9
			L-60.9,246 M249.9-67L-62,244.9 M248.7-68.2L-63.2,243.7 M247.6-69.3L-64.3,242.6 M246.4-70.5L-65.5,241.4 M245.3-71.6
			L-66.7,240.3 M244.1-72.8L-67.8,239.1 M243-73.9L-69,238 M241.8-75.1L-70.1,236.8 M240.6-76.2L-71.3,235.7 M239.5-77.4
			L-72.4,234.5 M238.3-78.5L-73.6,233.4 M237.2-79.7L-74.7,232.2 M236-80.8L-75.9,231.1 M234.9-82L-77.1,229.9 M233.7-83.1
			L-78.2,228.8 M232.6-84.3L-79.4,227.6 M231.4-85.4L-80.5,226.5"/>
		<path class="st26" d="M301.1-9.8L-7.8,299.1 M300-11L-9,297.9 M298.8-12.1L-10.1,296.8 M297.7-13.3L-11.3,295.6 M296.5-14.4
			L-12.4,294.5 M295.4-15.6L-13.6,293.3 M294.2-16.8L-14.7,292.1 M293.1-17.9L-15.9,291 M291.9-19.1L-17,289.8 M290.7-20.2
			L-18.2,288.7 M289.6-21.4L-19.4,287.5 M288.4-22.5L-20.5,286.4 M287.3-23.7L-21.7,285.2 M286.1-24.8L-22.8,284.1 M285-26
			L-24,282.9 M283.8-27.1L-25.1,281.8 M282.7-28.3L-26.3,280.6 M281.5-29.4L-27.4,279.5 M280.3-30.6L-28.6,278.3 M279.2-31.7
			L-29.7,277.2 M278-32.9L-30.9,276 M276.9-34L-32.1,274.9 M275.7-35.2L-33.2,273.7 M274.6-36.3L-34.4,272.6 M273.4-37.5
			L-35.5,271.4 M272.3-38.6L-36.7,270.3 M271.1-39.8L-37.8,269.1 M269.9-40.9L-39,268 M268.8-42.1L-40.1,266.8 M267.6-43.2
			L-41.3,265.7 M266.5-44.4L-42.5,264.5 M265.3-45.5L-43.6,263.4"/>
		<path class="st26" d="M341,24L29.1,335.9 M339.8,22.9L27.9,334.8 M338.7,21.7L26.7,333.6 M337.5,20.6L25.6,332.5 M336.4,19.4
			L24.4,331.3 M335.2,18.3L23.3,330.2 M334.1,17.1L22.1,329 M332.9,16L21,327.9 M331.7,14.8L19.8,326.7 M330.6,13.7L18.7,325.5
			 M329.4,12.5L17.5,324.4 M328.3,11.4L16.3,323.2 M327.1,10.2L15.2,322.1 M326,9.1L14,320.9 M324.8,7.9L12.9,319.8 M323.7,6.8
			L11.7,318.6 M322.5,5.6L10.6,317.5 M321.3,4.5L9.4,316.3 M320.2,3.3L8.3,315.2 M319,2.1L7.1,314 M317.9,1L6,312.9 M316.7-0.2
			L4.8,311.7 M315.6-1.3L3.6,310.6 M314.4-2.5L2.5,309.4 M313.3-3.6L1.3,308.3 M312.1-4.8L0.2,307.1 M310.9-5.9L-1,306 M309.8-7.1
			L-2.1,304.8 M308.6-8.2L-3.3,303.7 M307.5-9.4L-4.4,302.5 M306.3-10.5L-5.6,301.4 M305.2-11.7L-6.8,300.2"/>
	</g>
	<g class="st1">
		<defs>
			<rect id="SVGID_37_" y="-0.1" width="118.1" height="235.1"/>
		</defs>
		<clipPath id="SVGID_38_">
			<use xlink:href="#SVGID_37_"  style="overflow:visible;"/>
		</clipPath>
		<g class="st27">
			<g>
				<defs>
					<rect id="SVGID_39_" x="20.8" y="149.2" width="74.7" height="54.7"/>
				</defs>
				<clipPath id="SVGID_40_">
					<use xlink:href="#SVGID_39_"  style="overflow:visible;"/>
				</clipPath>
				<line class="st28" x1="58.1" y1="162.2" x2="58.1" y2="202.9"/>
				<line class="st28" x1="78.4" y1="182.6" x2="37.8" y2="182.6"/>
			</g>
		</g>
	</g>
</g>
</svg>
