<?xml version="1.0" encoding="utf-8"?>
<!-- Generator: Adobe Illustrator 21.0.0, SVG Export Plug-In . SVG Version: 6.00 Build 0)  -->
<!DOCTYPE svg PUBLIC "-//W3C//DTD SVG 1.1//EN" "http://www.w3.org/Graphics/SVG/1.1/DTD/svg11.dtd">
<svg version="1.1" id="Layer_1" xmlns="http://www.w3.org/2000/svg" xmlns:xlink="http://www.w3.org/1999/xlink" x="0px" y="0px"
	 viewBox="0 0 45 45" style="enable-background:new 0 0 45 45;" xml:space="preserve">
<style type="text/css">
	.st0{clip-path:url(#SVGID_2_);fill:#FF0000;}
	.st1{clip-path:url(#SVGID_2_);fill:none;stroke:#FFFF00;stroke-width:4.1374;}
</style>
<g>
	<defs>
		<rect id="SVGID_1_" width="45" height="45"/>
	</defs>
	<clipPath id="SVGID_2_">
		<use xlink:href="#SVGID_1_"  style="overflow:visible;"/>
	</clipPath>
	<path class="st0" d="M40.6,31.1c-2.9-2.9-5.7-5.7-8.6-8.6c2.9-2.9,5.7-5.7,8.6-8.6l1.5-1.5L40.6,11L34,4.4l-1.5-1.5l-1.5,1.5
		c-2.9,2.9-5.7,5.7-8.6,8.6c-2.9-2.9-5.7-5.7-8.6-8.6l-1.5-1.5L11,4.4L4.4,11l-1.5,1.5l1.5,1.5c2.9,2.9,5.7,5.7,8.6,8.6
		c-2.9,2.9-5.7,5.7-8.6,8.6l-1.5,1.5L4.4,34l6.6,6.6l1.5,1.5l1.5-1.5c2.9-2.9,5.7-5.7,8.6-8.6c2.9,2.9,5.7,5.7,8.6,8.6l1.5,1.5
		l1.5-1.5l6.6-6.6l1.5-1.5L40.6,31.1z"/>
	<path class="st1" d="M40.6,31.1c-2.9-2.9-5.7-5.7-8.6-8.6c2.9-2.9,5.7-5.7,8.6-8.6l1.5-1.5L40.6,11L34,4.4l-1.5-1.5l-1.5,1.5
		c-2.9,2.9-5.7,5.7-8.6,8.6c-2.9-2.9-5.7-5.7-8.6-8.6l-1.5-1.5L11,4.4L4.4,11l-1.5,1.5l1.5,1.5c2.9,2.9,5.7,5.7,8.6,8.6
		c-2.9,2.9-5.7,5.7-8.6,8.6l-1.5,1.5L4.4,34l6.6,6.6l1.5,1.5l1.5-1.5c2.9-2.9,5.7-5.7,8.6-8.6c2.9,2.9,5.7,5.7,8.6,8.6l1.5,1.5
		l1.5-1.5l6.6-6.6l1.5-1.5L40.6,31.1z"/>
</g>
</svg>
