<?xml version="1.0" encoding="utf-8"?>
<!-- Generator: Adobe Illustrator 21.0.0, SVG Export Plug-In . SVG Version: 6.00 Build 0)  -->
<!DOCTYPE svg PUBLIC "-//W3C//DTD SVG 1.1//EN" "http://www.w3.org/Graphics/SVG/1.1/DTD/svg11.dtd">
<svg version="1.1" id="Layer_1" xmlns="http://www.w3.org/2000/svg" xmlns:xlink="http://www.w3.org/1999/xlink" x="0px" y="0px"
	 viewBox="0 0 480 153" style="enable-background:new 0 0 480 153;" xml:space="preserve">
<style type="text/css">
	.st0{clip-path:url(#SVGID_2_);fill:#FFFF00;}
	
		.st1{clip-path:url(#SVGID_2_);fill:none;stroke:#FF0000;stroke-width:4;stroke-linecap:round;stroke-linejoin:round;stroke-dasharray:0,7.861;}
	.st2{clip-path:url(#SVGID_2_);fill:none;stroke:#FF0000;stroke-width:4;stroke-linecap:round;stroke-linejoin:round;}
	.st3{clip-path:url(#SVGID_2_);fill:none;stroke:#FFFF00;stroke-width:15;}
	.st4{clip-path:url(#SVGID_2_);fill:none;stroke:#FF0000;stroke-width:10;}
</style>
<g>
	<defs>
		<rect id="SVGID_1_" x="1" y="0" width="479.5" height="153"/>
	</defs>
	<clipPath id="SVGID_2_">
		<use xlink:href="#SVGID_1_"  style="overflow:visible;"/>
	</clipPath>
	<path class="st0" d="M240.8,151c76.7,0,138.9-6.7,138.9-15s-62.2-15-138.9-15s-138.9,6.7-138.9,15S164,151,240.8,151"/>
	<path class="st1" d="M248.6,151c64.2-0.4,116.8-5.5,128.6-12.2"/>
	<path class="st1" d="M373.6,131.6c-17-6-68.1-10.4-128.9-10.6"/>
	<path class="st1" d="M232.9,120.9c-64.2,0.4-116.8,5.5-128.6,12.2"/>
	<path class="st1" d="M107.9,140.4c17,6,68.1,10.4,128.9,10.6"/>
	<path class="st2" d="M240.8,151L240.8,151 M101.8,136L101.8,136 M240.8,120.9L240.8,120.9 M379.7,136L379.7,136"/>
	<ellipse class="st3" cx="240.8" cy="111" rx="138.9" ry="15"/>
	<ellipse class="st4" cx="240.8" cy="111" rx="138.9" ry="15"/>
	<ellipse class="st3" cx="240.8" cy="65.9" rx="174.3" ry="20"/>
	<ellipse class="st4" cx="240.8" cy="65.9" rx="174.3" ry="20"/>
</g>
</svg>
