<?xml version="1.0" encoding="utf-8"?>
<!-- Generator: Adobe Illustrator 21.0.0, SVG Export Plug-In . SVG Version: 6.00 Build 0)  -->
<!DOCTYPE svg PUBLIC "-//W3C//DTD SVG 1.1//EN" "http://www.w3.org/Graphics/SVG/1.1/DTD/svg11.dtd">
<svg version="1.1" id="Layer_1" xmlns="http://www.w3.org/2000/svg" xmlns:xlink="http://www.w3.org/1999/xlink" x="0px" y="0px"
	 viewBox="0 0 346 157" style="enable-background:new 0 0 346 157;" xml:space="preserve">
<style type="text/css">
	.st0{fill:#FFFFFF;}
	.st1{clip-path:url(#SVGID_2_);fill:none;stroke:#231F20;stroke-width:5.3817;stroke-linejoin:round;}
	.st2{clip-path:url(#SVGID_2_);fill:#FFFFFF;}
	.st3{clip-path:url(#SVGID_2_);fill:none;stroke:#231F20;stroke-width:5.3817;}
	.st4{clip-path:url(#SVGID_2_);fill:none;stroke:#231F20;stroke-width:4.0358;}
	.st5{fill:none;stroke:#FF0000;stroke-width:13.4532;}
	.st6{clip-path:url(#SVGID_4_);fill:#FFFFFF;}
	.st7{clip-path:url(#SVGID_4_);fill:none;stroke:#231F20;stroke-width:5.3817;stroke-linecap:round;stroke-linejoin:round;}
	.st8{clip-path:url(#SVGID_6_);fill:none;stroke:#231F20;stroke-width:1.3449;stroke-miterlimit:10;}
	.st9{clip-path:url(#SVGID_8_);fill:none;stroke:#231F20;stroke-width:1.3449;stroke-miterlimit:10;}
	.st10{clip-path:url(#SVGID_10_);fill:#FFFFFF;}
	.st11{clip-path:url(#SVGID_10_);fill:none;stroke:#231F20;stroke-width:4.0358;}
	.st12{clip-path:url(#SVGID_12_);fill:none;stroke:#231F20;stroke-width:1.0879;stroke-miterlimit:10;}
	.st13{clip-path:url(#SVGID_14_);fill:none;stroke:#231F20;stroke-width:4.0358;}
	.st14{clip-path:url(#SVGID_14_);fill:#FFFFFF;}
	.st15{clip-path:url(#SVGID_14_);fill:none;stroke:#231F20;stroke-width:5.3817;}
	.st16{clip-path:url(#SVGID_16_);fill:none;stroke:#231F20;stroke-width:1.0879;stroke-miterlimit:10;}
	.st17{clip-path:url(#SVGID_18_);fill:none;stroke:#231F20;stroke-width:4.0358;}
	.st18{clip-path:url(#SVGID_18_);fill:#FFFFFF;}
	.st19{clip-path:url(#SVGID_18_);fill:none;stroke:#231F20;stroke-width:5.3817;stroke-linecap:round;stroke-linejoin:round;}
	.st20{clip-path:url(#SVGID_20_);fill:none;stroke:#231F20;stroke-width:1.3449;stroke-miterlimit:10;}
	.st21{clip-path:url(#SVGID_22_);fill:none;stroke:#231F20;stroke-width:1.3449;stroke-miterlimit:10;}
</style>
<polygon class="st0" points="102.4,58.3 51.1,3 13.3,3 19,15.4 37.6,62.1 "/>
<g>
	<defs>
		<rect id="SVGID_1_" y="0.3" width="346" height="156.7"/>
	</defs>
	<clipPath id="SVGID_2_">
		<use xlink:href="#SVGID_1_"  style="overflow:visible;"/>
	</clipPath>
	<polygon class="st1" points="102.4,58.3 51.1,3 13.3,3 19,15.4 37.6,62.1 	"/>
	<path class="st2" d="M343.3,94c0-10.6-8.6-19.1-19.1-19.1h-1.4c-3-14.3-15.7-25-30.9-25H126.2h-13.7H107L26,56.4v34.8l70.4,21.8
		h16.1h138h41.4h32.3C334.8,113.1,343.3,104.5,343.3,94"/>
	<path class="st3" d="M343.3,94c0-10.6-8.6-19.1-19.1-19.1h-1.4c-3-14.3-15.7-25-30.9-25H126.2h-13.7H107L26,56.4v34.8l70.4,21.8
		h16.1h138h41.4h32.3C334.8,113.1,343.3,104.5,343.3,94z"/>
	<path class="st4" d="M325.7,75.5c0,0-62.9,7.1-62.9-25.9"/>
</g>
<line class="st5" x1="110.8" y1="59.5" x2="110.8" y2="89.8"/>
<line class="st5" x1="126" y1="74.7" x2="95.7" y2="74.7"/>
<g>
	<defs>
		<rect id="SVGID_3_" y="0.3" width="346" height="156.7"/>
	</defs>
	<clipPath id="SVGID_4_">
		<use xlink:href="#SVGID_3_"  style="overflow:visible;"/>
	</clipPath>
	<path class="st6" d="M79.6,86.8c-10.7,13.7-76.9,3.6-76.9,3.6l30.7-8.9"/>
	<path class="st7" d="M79.6,86.8c-10.7,13.7-76.9,3.6-76.9,3.6l30.7-8.9"/>
</g>
<g>
	<defs>
		<path id="SVGID_5_" d="M282,72.6c18.2,7,41.2,1.9,41.2,1.9s-7.6-25.6-32.3-25.3l-29.1-0.3C261.7,48.9,264,65.7,282,72.6"/>
	</defs>
	<clipPath id="SVGID_6_">
		<use xlink:href="#SVGID_5_"  style="overflow:visible;"/>
	</clipPath>
	<path class="st8" d="M799.6-686.6L-12.6,125.6 M796.6-689.6L-15.6,122.6 M793.6-692.6L-18.6,119.6 M790.6-695.6L-21.6,116.6
		 M787.6-698.6L-24.6,113.6 M784.6-701.6L-27.7,110.6 M781.6-704.6L-30.7,107.6 M778.6-707.6L-33.7,104.6 M775.6-710.6L-36.7,101.6
		 M772.6-713.6L-39.7,98.6 M769.6-716.6L-42.7,95.6 M766.6-719.6L-45.7,92.6 M763.5-722.6L-48.7,89.6 M760.5-725.6L-51.7,86.6
		 M757.5-728.6L-54.7,83.6 M754.5-731.6L-57.7,80.6 M751.5-734.6L-60.8,77.6 M748.5-737.6L-63.8,74.6 M745.5-740.6L-66.8,71.6
		 M742.5-743.6L-69.8,68.6 M739.5-746.6L-72.8,65.7 M736.5-749.6L-75.8,62.7 M733.5-752.6L-78.8,59.7 M730.5-755.6L-81.8,56.7
		 M727.4-758.6L-84.8,53.7 M724.4-761.6L-87.8,50.7 M721.4-764.6L-90.8,47.7 M718.4-767.6L-93.8,44.7 M715.4-770.6L-96.9,41.7
		 M712.4-773.6L-99.9,38.7 M709.4-776.6L-102.9,35.7 M706.4-779.6L-105.9,32.7"/>
	<path class="st8" d="M895.6-590.6L83.4,221.6 M892.6-593.6L80.3,218.6 M889.6-596.6L77.3,215.6 M886.6-599.6L74.3,212.6
		 M883.6-602.6L71.3,209.6 M880.6-605.6L68.3,206.6 M877.6-608.6L65.3,203.6 M874.6-611.6L62.3,200.6 M871.6-614.6L59.3,197.6
		 M868.5-617.6L56.3,194.6 M865.5-620.6L53.3,191.6 M862.5-623.6L50.3,188.6 M859.5-626.6L47.3,185.6 M856.5-629.6L44.2,182.6
		 M853.5-632.6L41.2,179.6 M850.5-635.6L38.2,176.6 M847.5-638.6L35.2,173.6 M844.5-641.6L32.2,170.6 M841.5-644.6L29.2,167.6
		 M838.5-647.6L26.2,164.6 M835.5-650.6L23.2,161.6 M832.4-653.6L20.2,158.6 M829.4-656.6L17.2,155.6 M826.4-659.6L14.2,152.6
		 M823.4-662.6L11.2,149.6 M820.4-665.6L8.1,146.6 M817.4-668.6L5.1,143.6 M814.4-671.6L2.1,140.6 M811.4-674.6L-0.9,137.6
		 M808.4-677.6L-3.9,134.6 M805.4-680.6L-6.9,131.6 M802.4-683.6L-9.9,128.6"/>
	<path class="st8" d="M984-486.7L179.5,317.7 M981-489.7L176.5,314.7 M977.9-492.7L173.5,311.7 M974.9-495.7L170.4,308.7
		 M971.9-498.7L167.4,305.7 M968.9-501.7L164.4,302.7 M965.9-504.7L161.4,299.7 M962.9-507.7L158.4,296.7 M959.9-510.7L155.4,293.7
		 M956.9-513.7L152.4,290.7 M953.9-516.7L149.4,287.8 M950.9-519.7L146.4,284.8 M947.9-522.7L143.4,281.8 M944.8-525.7L140.4,278.8
		 M941.8-528.7L137.4,275.8 M938.8-531.7L134.3,272.8 M935.8-534.7L131.3,269.8 M932.8-537.7L128.3,266.8 M929.8-540.7L125.3,263.8
		 M926.8-543.7L122.3,260.8 M923.8-546.7L119.3,257.8 M920.8-549.7L116.3,254.8 M917.8-552.7L113.3,251.8 M914.8-555.7L110.3,248.8
		 M911.8-558.7L107.3,245.8 M908.7-561.7L104.3,242.8 M905.7-564.7L101.3,239.8 M902.7-567.7L98.2,236.8 M899.7-570.7L95.2,233.8
		 M896.7-573.7L92.2,230.8 M893.7-576.7L89.2,227.8 M890.7-579.7L86.2,224.8"/>
	<path class="st8" d="M1087.7-398.5L275.4,413.7 M1084.7-401.5L272.4,410.7 M1081.7-404.5L269.4,407.7 M1078.7-407.5L266.4,404.7
		 M1075.7-410.5L263.4,401.7 M1072.7-413.5L260.4,398.7 M1069.7-416.5L257.4,395.7 M1066.7-419.5L254.4,392.7 M1063.6-422.5
		L251.4,389.7 M1060.6-425.5L248.4,386.7 M1057.6-428.5L245.4,383.7 M1054.6-431.5L242.4,380.7 M1051.6-434.5L239.3,377.7
		 M1048.6-437.5L236.3,374.7 M1045.6-440.5L233.3,371.7 M1042.6-443.5L230.3,368.7 M1039.6-446.5L227.3,365.7 M1036.6-449.5
		L224.3,362.7 M1033.6-452.5L221.3,359.7 M1030.6-455.5L218.3,356.7 M1027.5-458.5L215.3,353.7 M1024.5-461.5L212.3,350.7
		 M1021.5-464.5L209.3,347.7 M1018.5-467.5L206.3,344.8 M1015.5-470.5L203.2,341.8 M1012.5-473.5L200.2,338.8 M1009.5-476.5
		L197.2,335.8 M1006.5-479.5L194.2,332.8 M1003.5-482.5L191.2,329.8 M1000.5-485.5L188.2,326.8 M997.5-488.5L185.2,323.8
		 M994.4-491.5L182.2,320.8"/>
</g>
<g>
	<defs>
		<path id="SVGID_7_" d="M210.1,96.6H68.1l31.5,9.7h219.5c12.9,0,12.1-9.7,12.1-9.7v-0.7L210.1,96.6z"/>
	</defs>
	<clipPath id="SVGID_8_">
		<use xlink:href="#SVGID_7_"  style="overflow:visible;"/>
	</clipPath>
	<path class="st9" d="M795.6-683.9L-16.7,128.3 M792.6-686.9L-19.7,125.3 M789.6-689.9L-22.7,122.3 M786.6-692.9L-25.7,119.3
		 M783.6-695.9L-28.7,116.3 M780.6-698.9L-31.7,113.3 M777.6-701.9L-34.7,110.3 M774.6-704.9L-37.7,107.3 M771.5-707.9L-40.7,104.3
		 M768.5-710.9L-43.7,101.3 M765.5-713.9L-46.7,98.3 M762.5-716.9L-49.7,95.3 M759.5-719.9L-52.8,92.3 M756.5-722.9L-55.8,89.3
		 M753.5-725.9L-58.8,86.3 M750.5-728.9L-61.8,83.3 M747.5-731.9L-64.8,80.3 M744.5-734.9L-67.8,77.3 M741.5-737.9L-70.8,74.3
		 M738.5-740.9L-73.8,71.3 M735.4-743.9L-76.8,68.3 M732.4-746.9L-79.8,65.3 M729.4-749.9L-82.8,62.3 M726.4-752.9L-85.8,59.3
		 M723.4-755.9L-88.9,56.3 M720.4-758.9L-91.9,53.3 M717.4-761.9L-94.9,50.3 M714.4-764.9L-97.9,47.4 M711.4-767.9L-100.9,44.4
		 M708.4-770.9L-103.9,41.4 M705.4-773.9L-106.9,38.4 M702.3-776.9L-109.9,35.4"/>
	<path class="st9" d="M891.6-587.9L79.3,224.3 M888.6-590.9L76.3,221.3 M885.6-593.9L73.3,218.3 M882.6-596.9L70.3,215.3
		 M879.6-599.9L67.3,212.3 M876.5-602.9L64.3,209.3 M873.5-605.9L61.3,206.3 M870.5-608.9L58.3,203.3 M867.5-611.9L55.3,200.3
		 M864.5-614.9L52.2,197.3 M861.5-617.9L49.2,194.3 M858.5-620.9L46.2,191.3 M855.5-623.9L43.2,188.3 M852.5-626.9L40.2,185.3
		 M849.5-629.9L37.2,182.3 M846.5-632.9L34.2,179.3 M843.4-635.9L31.2,176.3 M840.4-638.9L28.2,173.3 M837.4-641.9L25.2,170.3
		 M834.4-644.9L22.2,167.3 M831.4-647.9L19.2,164.3 M828.4-650.9L16.1,161.3 M825.4-653.9L13.1,158.3 M822.4-656.9L10.1,155.3
		 M819.4-659.9L7.1,152.3 M816.4-662.9L4.1,149.3 M813.4-665.9L1.1,146.3 M810.4-668.9L-1.9,143.3 M807.3-671.9L-4.9,140.3
		 M804.3-674.9L-7.9,137.3 M801.3-677.9L-10.9,134.3 M798.3-680.9L-13.9,131.3"/>
	<path class="st9" d="M979.9-484L175.4,320.4 M976.9-487L172.4,317.4 M973.9-490L169.4,314.4 M970.9-493L166.4,311.4 M967.9-496
		L163.4,308.4 M964.9-499L160.4,305.4 M961.9-502L157.4,302.4 M958.9-505L154.4,299.4 M955.9-508L151.4,296.4 M952.8-511
		L148.4,293.4 M949.8-514L145.4,290.4 M946.8-517L142.3,287.4 M943.8-520L139.3,284.4 M940.8-523L136.3,281.4 M937.8-526
		L133.3,278.4 M934.8-529L130.3,275.4 M931.8-532L127.3,272.4 M928.8-535L124.3,269.5 M925.8-538L121.3,266.5 M922.8-541
		L118.3,263.5 M919.8-544L115.3,260.5 M916.7-547L112.3,257.5 M913.7-550L109.3,254.5 M910.7-553L106.2,251.5 M907.7-556
		L103.2,248.5 M904.7-559L100.2,245.5 M901.7-562L97.2,242.5 M898.7-565L94.2,239.5 M895.7-568L91.2,236.5 M892.7-571L88.2,233.5
		 M889.7-574L85.2,230.5 M886.7-577L82.2,227.5"/>
	<path class="st9" d="M1083.7-395.8L271.4,416.4 M1080.7-398.8L268.4,413.4 M1077.7-401.8L265.4,410.4 M1074.7-404.8L262.4,407.4
		 M1071.6-407.8L259.4,404.4 M1068.6-410.8L256.4,401.4 M1065.6-413.8L253.4,398.4 M1062.6-416.8L250.4,395.4 M1059.6-419.8
		L247.3,392.4 M1056.6-422.8L244.3,389.4 M1053.6-425.8L241.3,386.4 M1050.6-428.8L238.3,383.4 M1047.6-431.8L235.3,380.4
		 M1044.6-434.8L232.3,377.4 M1041.6-437.8L229.3,374.4 M1038.5-440.8L226.3,371.4 M1035.5-443.8L223.3,368.4 M1032.5-446.8
		L220.3,365.4 M1029.5-449.8L217.3,362.4 M1026.5-452.8L214.3,359.4 M1023.5-455.8L211.2,356.4 M1020.5-458.8L208.2,353.4
		 M1017.5-461.8L205.2,350.4 M1014.5-464.8L202.2,347.4 M1011.5-467.8L199.2,344.4 M1008.5-470.8L196.2,341.4 M1005.5-473.8
		L193.2,338.4 M1002.4-476.8L190.2,335.4 M999.4-479.8L187.2,332.4 M996.4-482.8L184.2,329.4 M993.4-485.8L181.2,326.5 M990.4-488.8
		L178.2,323.5"/>
</g>
<g>
	<defs>
		<rect id="SVGID_9_" y="0.3" width="346" height="156.7"/>
	</defs>
	<clipPath id="SVGID_10_">
		<use xlink:href="#SVGID_9_"  style="overflow:visible;"/>
	</clipPath>
	<path class="st10" d="M176.2,119.5v18.7l8,7.1h25.5c0,0,4.4-5.8,4.4-12.9s-1.7-12.9-4.4-12.9H176.2z"/>
	<path class="st11" d="M176.2,119.5v18.7l8,7.1h25.5c0,0,4.4-5.8,4.4-12.9s-1.7-12.9-4.4-12.9H176.2z"/>
	<path class="st10" d="M210.3,145.3c2,0,3.6-5.8,3.6-12.9c0-7.1-1.6-12.9-3.6-12.9c-2,0-3.6,5.8-3.6,12.9
		C206.8,139.5,208.4,145.3,210.3,145.3"/>
</g>
<g>
	<defs>
		<path id="SVGID_11_" d="M206.8,132.4c0,7.1,1.6,12.9,3.6,12.9c2,0,3.6-5.8,3.6-12.9c0-7.1-1.6-12.9-3.6-12.9
			C208.4,119.5,206.8,125.2,206.8,132.4"/>
	</defs>
	<clipPath id="SVGID_12_">
		<use xlink:href="#SVGID_11_"  style="overflow:visible;"/>
	</clipPath>
	<path class="st12" d="M679.8-590.9L23.1,65.7 M677.4-593.3L20.7,63.3 M674.9-595.8L18.3,60.9 M672.5-598.2L15.8,58.4 M670.1-600.6
		L13.4,56 M667.6-603L11,53.6 M665.2-605.5L8.6,51.2 M662.8-607.9L6.1,48.8 M660.3-610.3L3.7,46.3 M657.9-612.7L1.3,43.9
		 M655.5-615.2L-1.2,41.5 M653-617.6L-3.6,39.1 M650.6-620L-6,36.6 M648.2-622.4L-8.5,34.2 M645.7-624.9L-10.9,31.8 M643.3-627.3
		L-13.3,29.4 M640.9-629.7L-15.8,26.9 M638.5-632.1L-18.2,24.5 M636-634.6L-20.6,22.1 M633.6-637L-23.1,19.7 M631.2-639.4
		L-25.5,17.2 M628.7-641.8L-27.9,14.8 M626.3-644.3L-30.4,12.4 M623.9-646.7L-32.8,10 M621.4-649.1L-35.2,7.5 M619-651.5L-37.7,5.1
		 M616.6-653.9L-40.1,2.7 M614.1-656.4L-42.5,0.3 M611.7-658.8L-45-2.2 M609.3-661.2L-47.4-4.6 M606.8-663.6L-49.8-7 M604.4-666.1
		L-52.2-9.4"/>
	<path class="st12" d="M757.4-513.3L100.7,143.3 M755-515.7L98.3,140.9 M752.5-518.2L95.9,138.5 M750.1-520.6L93.4,136 M747.7-523
		L91,133.6 M745.2-525.4L88.6,131.2 M742.8-527.9L86.1,128.8 M740.4-530.3L83.7,126.3 M737.9-532.7L81.3,123.9 M735.5-535.1
		L78.8,121.5 M733.1-537.6L76.4,119.1 M730.6-540L74,116.7 M728.2-542.4L71.5,114.2 M725.8-544.8L69.1,111.8 M723.3-547.3
		L66.7,109.4 M720.9-549.7L64.3,107 M718.5-552.1L61.8,104.5 M716-554.5L59.4,102.1 M713.6-557L57,99.7 M711.2-559.4L54.5,97.3
		 M708.7-561.8L52.1,94.8 M706.3-564.2L49.7,92.4 M703.9-566.7L47.2,90 M701.4-569.1L44.8,87.6 M699-571.5L42.4,85.1 M696.6-573.9
		L39.9,82.7 M694.1-576.4L37.5,80.3 M691.7-578.8L35.1,77.9 M689.3-581.2L32.6,75.4 M686.9-583.6L30.2,73 M684.4-586.1L27.8,70.6
		 M682-588.5L25.3,68.2"/>
	<path class="st12" d="M828.8-429.3L178.4,221 M826.4-431.7L176,218.6 M823.9-434.2L173.6,216.2 M821.5-436.6L171.1,213.8
		 M819.1-439L168.7,211.3 M816.6-441.4L166.3,208.9 M814.2-443.9L163.8,206.5 M811.8-446.3L161.4,204.1 M809.3-448.7L159,201.6
		 M806.9-451.1L156.5,199.2 M804.5-453.6L154.1,196.8 M802-456L151.7,194.4 M799.6-458.4L149.2,191.9 M797.2-460.8L146.8,189.5
		 M794.7-463.3L144.4,187.1 M792.3-465.7L142,184.7 M789.9-468.1L139.5,182.2 M787.5-470.5L137.1,179.8 M785-473L134.7,177.4
		 M782.6-475.4L132.2,175 M780.2-477.8L129.8,172.5 M777.7-480.2L127.4,170.1 M775.3-482.7L124.9,167.7 M772.9-485.1L122.5,165.3
		 M770.4-487.5L120.1,162.8 M768-489.9L117.6,160.4 M765.6-492.4L115.2,158 M763.1-494.8L112.8,155.6 M760.7-497.2L110.3,153.2
		 M758.3-499.6L107.9,150.7 M755.8-502.1L105.5,148.3 M753.4-504.5L103,145.9"/>
	<path class="st12" d="M912.7-358L256,298.6 M910.2-360.4L253.6,296.2 M907.8-362.9L251.2,293.8 M905.4-365.3L248.7,291.4
		 M902.9-367.7L246.3,288.9 M900.5-370.1L243.9,286.5 M898.1-372.6L241.4,284.1 M895.6-375L239,281.7 M893.2-377.4L236.6,279.2
		 M890.8-379.8L234.1,276.8 M888.4-382.3L231.7,274.4 M885.9-384.7L229.3,272 M883.5-387.1L226.8,269.5 M881.1-389.5L224.4,267.1
		 M878.6-392L222,264.7 M876.2-394.4L219.5,262.3 M873.8-396.8L217.1,259.8 M871.3-399.2L214.7,257.4 M868.9-401.7L212.2,255
		 M866.5-404.1L209.8,252.6 M864-406.5L207.4,250.1 M861.6-408.9L204.9,247.7 M859.2-411.3L202.5,245.3 M856.7-413.8L200.1,242.9
		 M854.3-416.2L197.7,240.4 M851.9-418.6L195.2,238 M849.4-421L192.8,235.6 M847-423.5L190.4,233.2 M844.6-425.9L187.9,230.7
		 M842.1-428.3L185.5,228.3 M839.7-430.7L183.1,225.9 M837.3-433.2L180.6,223.5"/>
</g>
<g>
	<defs>
		<rect id="SVGID_13_" y="0.3" width="346" height="156.7"/>
	</defs>
	<clipPath id="SVGID_14_">
		<use xlink:href="#SVGID_13_"  style="overflow:visible;"/>
	</clipPath>
	<ellipse class="st13" cx="210.3" cy="132.4" rx="3.6" ry="12.9"/>
	<path class="st14" d="M131.8,128.4v10.4l35.3,15.5h25.5c0,0,4.4-5.8,4.4-12.9s-1.7-12.9-4.4-12.9H131.8z"/>
	<path class="st15" d="M131.8,128.4v10.4l35.3,15.5h25.5c0,0,4.4-5.8,4.4-12.9s-1.7-12.9-4.4-12.9H131.8z"/>
	<path class="st14" d="M194.7,155c2,0,3.6-6,3.6-13.3c0-7.3-1.6-13.3-3.6-13.3c-2,0-3.6,6-3.6,13.3C191.1,149,192.7,155,194.7,155"
		/>
</g>
<g>
	<defs>
		<path id="SVGID_15_" d="M191.1,141.7c0,7.3,1.6,13.3,3.6,13.3c2,0,3.6-6,3.6-13.3c0-7.3-1.6-13.3-3.6-13.3
			C192.7,128.4,191.1,134.3,191.1,141.7"/>
	</defs>
	<clipPath id="SVGID_16_">
		<use xlink:href="#SVGID_15_"  style="overflow:visible;"/>
	</clipPath>
	<path class="st16" d="M679.8-590.9L23.1,65.7 M677.4-593.3L20.7,63.3 M674.9-595.8L18.3,60.9 M672.5-598.2L15.8,58.4 M670.1-600.6
		L13.4,56 M667.6-603L11,53.6 M665.2-605.5L8.6,51.2 M662.8-607.9L6.1,48.8 M660.3-610.3L3.7,46.3 M657.9-612.7L1.3,43.9
		 M655.5-615.2L-1.2,41.5 M653-617.6L-3.6,39.1 M650.6-620L-6,36.6 M648.2-622.4L-8.5,34.2 M645.7-624.9L-10.9,31.8 M643.3-627.3
		L-13.3,29.4 M640.9-629.7L-15.8,26.9 M638.5-632.1L-18.2,24.5 M636-634.6L-20.6,22.1 M633.6-637L-23.1,19.7 M631.2-639.4
		L-25.5,17.2 M628.7-641.8L-27.9,14.8 M626.3-644.3L-30.4,12.4 M623.9-646.7L-32.8,10 M621.4-649.1L-35.2,7.5 M619-651.5L-37.7,5.1
		 M616.6-653.9L-40.1,2.7 M614.1-656.4L-42.5,0.3 M611.7-658.8L-45-2.2 M609.3-661.2L-47.4-4.6 M606.8-663.6L-49.8-7 M604.4-666.1
		L-52.2-9.4"/>
	<path class="st16" d="M757.4-513.3L100.7,143.3 M755-515.7L98.3,140.9 M752.5-518.2L95.9,138.5 M750.1-520.6L93.4,136 M747.7-523
		L91,133.6 M745.2-525.4L88.6,131.2 M742.8-527.9L86.1,128.8 M740.4-530.3L83.7,126.3 M737.9-532.7L81.3,123.9 M735.5-535.1
		L78.8,121.5 M733.1-537.6L76.4,119.1 M730.6-540L74,116.7 M728.2-542.4L71.5,114.2 M725.8-544.8L69.1,111.8 M723.3-547.3
		L66.7,109.4 M720.9-549.7L64.3,107 M718.5-552.1L61.8,104.5 M716-554.5L59.4,102.1 M713.6-557L57,99.7 M711.2-559.4L54.5,97.3
		 M708.7-561.8L52.1,94.8 M706.3-564.2L49.7,92.4 M703.9-566.7L47.2,90 M701.4-569.1L44.8,87.6 M699-571.5L42.4,85.1 M696.6-573.9
		L39.9,82.7 M694.1-576.4L37.5,80.3 M691.7-578.8L35.1,77.9 M689.3-581.2L32.6,75.4 M686.9-583.6L30.2,73 M684.4-586.1L27.8,70.6
		 M682-588.5L25.3,68.2"/>
	<path class="st16" d="M828.8-429.3L178.4,221 M826.4-431.7L176,218.6 M823.9-434.2L173.6,216.2 M821.5-436.6L171.1,213.8
		 M819.1-439L168.7,211.3 M816.6-441.4L166.3,208.9 M814.2-443.9L163.8,206.5 M811.8-446.3L161.4,204.1 M809.3-448.7L159,201.6
		 M806.9-451.1L156.5,199.2 M804.5-453.6L154.1,196.8 M802-456L151.7,194.4 M799.6-458.4L149.2,191.9 M797.2-460.8L146.8,189.5
		 M794.7-463.3L144.4,187.1 M792.3-465.7L142,184.7 M789.9-468.1L139.5,182.2 M787.5-470.5L137.1,179.8 M785-473L134.7,177.4
		 M782.6-475.4L132.2,175 M780.2-477.8L129.8,172.5 M777.7-480.2L127.4,170.1 M775.3-482.7L124.9,167.7 M772.9-485.1L122.5,165.3
		 M770.4-487.5L120.1,162.8 M768-489.9L117.6,160.4 M765.6-492.4L115.2,158 M763.1-494.8L112.8,155.6 M760.7-497.2L110.3,153.2
		 M758.3-499.6L107.9,150.7 M755.8-502.1L105.5,148.3 M753.4-504.5L103,145.9"/>
	<path class="st16" d="M912.7-358L256,298.6 M910.2-360.4L253.6,296.2 M907.8-362.9L251.2,293.8 M905.4-365.3L248.7,291.4
		 M902.9-367.7L246.3,288.9 M900.5-370.1L243.9,286.5 M898.1-372.6L241.4,284.1 M895.6-375L239,281.7 M893.2-377.4L236.6,279.2
		 M890.8-379.8L234.1,276.8 M888.4-382.3L231.7,274.4 M885.9-384.7L229.3,272 M883.5-387.1L226.8,269.5 M881.1-389.5L224.4,267.1
		 M878.6-392L222,264.7 M876.2-394.4L219.5,262.3 M873.8-396.8L217.1,259.8 M871.3-399.2L214.7,257.4 M868.9-401.7L212.2,255
		 M866.5-404.1L209.8,252.6 M864-406.5L207.4,250.1 M861.6-408.9L204.9,247.7 M859.2-411.3L202.5,245.3 M856.7-413.8L200.1,242.9
		 M854.3-416.2L197.7,240.4 M851.9-418.6L195.2,238 M849.4-421L192.8,235.6 M847-423.5L190.4,233.2 M844.6-425.9L187.9,230.7
		 M842.1-428.3L185.5,228.3 M839.7-430.7L183.1,225.9 M837.3-433.2L180.6,223.5"/>
</g>
<g>
	<defs>
		<rect id="SVGID_17_" y="0.3" width="346" height="156.7"/>
	</defs>
	<clipPath id="SVGID_18_">
		<use xlink:href="#SVGID_17_"  style="overflow:visible;"/>
	</clipPath>
	<ellipse class="st17" cx="194.7" cy="141.7" rx="3.6" ry="13.3"/>
	<path class="st18" d="M236.8,94.8c0,0-59.6,41.6-69.3,44.9c-35.6,12.4-79.4,8.7-79.4,8.7l79.7-55.2"/>
	<path class="st19" d="M236.8,94.8c0,0-59.6,41.6-69.3,44.9c-35.6,12.4-79.4,8.7-79.4,8.7l79.7-55.2"/>
</g>
<g>
	<defs>
		<polygon id="SVGID_19_" points="23.3,9.2 41.1,55.2 54.3,52.8 35.8,9.2 		"/>
	</defs>
	<clipPath id="SVGID_20_">
		<use xlink:href="#SVGID_19_"  style="overflow:visible;"/>
	</clipPath>
	<path class="st20" d="M798.3-686.6L-14,125.6 M795.3-689.6L-17,122.6 M792.3-692.6L-20,119.6 M789.3-695.6L-23,116.6 M786.3-698.6
		L-26,113.6 M783.3-701.6L-29,110.6 M780.3-704.6L-32,107.6 M777.2-707.6L-35,104.6 M774.2-710.6L-38,101.6 M771.2-713.6L-41,98.6
		 M768.2-716.6L-44,95.6 M765.2-719.6L-47.1,92.6 M762.2-722.6L-50.1,89.6 M759.2-725.6L-53.1,86.6 M756.2-728.6L-56.1,83.6
		 M753.2-731.6L-59.1,80.6 M750.2-734.6L-62.1,77.6 M747.2-737.6L-65.1,74.6 M744.2-740.6L-68.1,71.6 M741.1-743.6L-71.1,68.6
		 M738.1-746.6L-74.1,65.7 M735.1-749.6L-77.1,62.7 M732.1-752.6L-80.1,59.7 M729.1-755.6L-83.2,56.7 M726.1-758.6L-86.2,53.7
		 M723.1-761.6L-89.2,50.7 M720.1-764.6L-92.2,47.7 M717.1-767.6L-95.2,44.7 M714.1-770.6L-98.2,41.7 M711.1-773.6L-101.2,38.7
		 M708-776.6L-104.2,35.7 M705-779.6L-107.2,32.7"/>
	<path class="st20" d="M894.3-590.6L82,221.6 M891.3-593.6L79,218.6 M888.3-596.6L76,215.6 M885.3-599.6L73,212.6 M882.2-602.6
		L70,209.6 M879.2-605.6L67,206.6 M876.2-608.6L64,203.6 M873.2-611.6L61,200.6 M870.2-614.6L57.9,197.6 M867.2-617.6L54.9,194.6
		 M864.2-620.6L51.9,191.6 M861.2-623.6L48.9,188.6 M858.2-626.6L45.9,185.6 M855.2-629.6L42.9,182.6 M852.2-632.6L39.9,179.6
		 M849.1-635.6L36.9,176.6 M846.1-638.6L33.9,173.6 M843.1-641.6L30.9,170.6 M840.1-644.6L27.9,167.6 M837.1-647.6L24.9,164.6
		 M834.1-650.6L21.8,161.6 M831.1-653.6L18.8,158.6 M828.1-656.6L15.8,155.6 M825.1-659.6L12.8,152.6 M822.1-662.6L9.8,149.6
		 M819.1-665.6L6.8,146.6 M816.1-668.6L3.8,143.6 M813-671.6L0.8,140.6 M810-674.6L-2.2,137.6 M807-677.6L-5.2,134.6 M804-680.6
		L-8.2,131.6 M801-683.6L-11.2,128.6"/>
</g>
<g>
	<defs>
		<path id="SVGID_21_" d="M209.3,95.9l-70.2,42c0,0,3.2,1.3,15.3-0.7c12.1-2,68.6-41.3,68.6-41.3H209.3z"/>
	</defs>
	<clipPath id="SVGID_22_">
		<use xlink:href="#SVGID_21_"  style="overflow:visible;"/>
	</clipPath>
	<path class="st21" d="M375.9-644.7L-45.8,412 M371.9-646.3L-49.7,410.5 M368-647.9L-53.7,408.9 M364-649.4L-57.6,407.3 M360.1-651
		L-61.6,405.7 M356.1-652.6L-65.5,404.2 M352.2-654.1L-69.5,402.6 M348.2-655.7L-73.4,401 M344.3-657.3L-77.3,399.5 M340.3-658.8
		L-81.3,397.9 M336.4-660.4L-85.2,396.3 M332.4-662L-89.2,394.8 M328.5-663.5L-93.1,393.2 M324.5-665.1L-97.1,391.6 M320.6-666.7
		L-101,390.1 M316.6-668.2L-105,388.5 M312.7-669.8L-108.9,386.9 M308.8-671.4L-112.9,385.4 M304.8-672.9L-116.8,383.8 M300.9-674.5
		L-120.8,382.2 M296.9-676.1L-124.7,380.7 M293-677.6L-128.7,379.1 M289-679.2L-132.6,377.5 M285.1-680.8L-136.6,376 M281.1-682.3
		L-140.5,374.4 M277.2-683.9L-144.5,372.8 M273.2-685.5L-148.4,371.3 M269.3-687L-152.4,369.7 M265.3-688.6L-156.3,368.1
		 M261.4-690.2L-160.2,366.6 M257.4-691.7L-164.2,365 M253.5-693.3L-168.1,363.4"/>
	<path class="st21" d="M506-604.6L80.3,462.3 M502.1-606.2L76.4,460.8 M498.1-607.8L72.4,459.2 M494.2-609.3L68.5,457.6
		 M490.2-610.9L64.5,456 M486.3-612.5L60.6,454.5 M482.3-614L56.6,452.9 M478.4-615.6L52.7,451.3 M474.4-617.2L48.7,449.8
		 M470.5-618.7L44.8,448.2 M466.5-620.3L40.8,446.6 M462.6-621.9L36.9,445.1 M458.6-623.5L32.9,443.5 M454.7-625L29,441.9
		 M450.7-626.6L25,440.4 M446.8-628.2L21.1,438.8 M442.8-629.7L17.1,437.2 M438.9-631.3L13.2,435.7 M434.9-632.9L9.2,434.1
		 M431-634.4L5.3,432.5 M427-636L1.3,431 M423.1-637.6L-2.6,429.4 M419.2-639.1L-6.6,427.8 M415.2-640.7l-425.7,1067 M411.3-642.3
		l-425.7,1067 M407.3-643.8l-425.7,1067 M403.4-645.4l-425.7,1067 M399.4-647L-26.3,420 M395.5-648.5l-425.7,1067 M391.5-650.1
		l-425.7,1067 M387.6-651.7l-425.7,1067 M383.6-653.2l-425.7,1067"/>
	<path class="st21" d="M632.1-554.3l-425.7,1067 M628.1-555.9l-425.7,1067 M624.2-557.5l-425.7,1067 M620.2-559l-425.7,1067
		 M616.3-560.6l-425.7,1067 M612.3-562.2l-425.7,1067 M608.4-563.7l-425.7,1067 M604.4-565.3l-425.7,1067 M600.5-566.9l-425.7,1067
		 M596.5-568.4l-425.7,1067 M592.6-570l-425.7,1067 M588.6-571.6l-425.7,1067 M584.7-573.2L159,493.8 M580.7-574.7L155,492.2
		 M576.8-576.3l-425.7,1067 M572.9-577.9l-425.7,1067 M568.9-579.4l-425.7,1067 M565-581L139.3,486 M561-582.6l-425.7,1067
		 M557.1-584.1l-425.7,1067 M553.1-585.7l-425.7,1067 M549.2-587.3l-425.7,1067 M545.2-588.8l-425.7,1067 M541.3-590.4l-425.7,1067
		 M537.3-592L111.6,475 M533.4-593.5l-425.7,1067 M529.4-595.1l-425.7,1067 M525.5-596.7L99.8,470.3 M521.5-598.2L95.8,468.7
		 M517.6-599.8L91.9,467.2 M513.6-601.4L87.9,465.6 M509.7-602.9L84,464"/>
</g>
</svg>
